<svg width="1280" height="1500" viewBox="0 0 1280 1500" fill="none" xmlns="http://www.w3.org/2000/svg">
<g clip-path="url(#clip0_2010_7)">
<rect width="1280" height="1500" fill="white"/>
<path d="M95.328 27.58V36.932C95.328 40.096 94.152 42 91.128 42H83.4V22.372H91.128C94.124 22.372 95.328 24.276 95.328 27.58ZM92.388 36.932V27.58C92.388 24.864 91.744 24.052 90.232 24.052H86.34V40.32H90.232C91.744 40.32 92.388 39.2 92.388 36.932ZM107.832 40.32V42H97.8922V22.372H107.832V24.052H100.832V31.164H105.844V32.816H100.832V40.32H107.832ZM120.48 36.092C120.48 40.124 119.22 42 115.916 42H109.644V40.32H115.356C116.952 40.32 117.764 39.704 117.764 36.512C117.764 33.712 117.316 33.208 115.076 33.208H112.948C110.12 33.208 109.14 31.836 109.14 27.832C109.14 24.388 110.288 22.372 113.452 22.372H118.912V24.052H114.152C112.612 24.052 111.856 24.752 111.856 27.44C111.856 30.044 112.164 30.66 114.152 30.66H116.14C119.164 30.66 120.48 31.612 120.48 36.092ZM134.454 28.364C134.454 33.32 133.53 34.16 129.778 34.16H126.726V32.508H129.442C131.122 32.508 131.57 31.836 131.57 28.308C131.57 24.78 131.122 24.052 129.442 24.052H125.578V42H122.638V22.372H129.778C133.53 22.372 134.454 23.408 134.454 28.364ZM146.195 40.32V42H136.255V22.372H146.195V24.052H139.195V31.164H144.207V32.816H139.195V40.32H146.195ZM158.843 36.092C158.843 40.124 157.583 42 154.279 42H148.007V40.32H153.719C155.315 40.32 156.127 39.704 156.127 36.512C156.127 33.712 155.679 33.208 153.439 33.208H151.311C148.483 33.208 147.503 31.836 147.503 27.832C147.503 24.388 148.651 22.372 151.815 22.372H157.275V24.052H152.515C150.975 24.052 150.219 24.752 150.219 27.44C150.219 30.044 150.527 30.66 152.515 30.66H154.503C157.527 30.66 158.843 31.612 158.843 36.092ZM169.296 42L168.512 37.716H163.276L162.464 42H159.552L163.612 22.372H168.456L172.348 42H169.296ZM165.88 24.052L163.584 36.064H168.232L166.16 24.052H165.88ZM184.547 36.092C184.547 40.124 183.287 42 179.983 42H173.711V40.32H179.423C181.019 40.32 181.831 39.704 181.831 36.512C181.831 33.712 181.383 33.208 179.143 33.208H177.015C174.187 33.208 173.207 31.836 173.207 27.832C173.207 24.388 174.355 22.372 177.519 22.372H182.979V24.052H178.219C176.678 24.052 175.923 24.752 175.923 27.44C175.923 30.044 176.231 30.66 178.219 30.66H180.207C183.231 30.66 184.547 31.612 184.547 36.092Z" fill="#103778"/>
<g filter="url(#filter0_d_2010_7)">
<rect x="82" y="50" width="1166" height="70" fill="url(#paint0_linear_2010_7)"/>
</g>
<path d="M95.474 80.186V81.026H92.184V84.708H94.662V85.534H92.184V90H90.7V80.186H95.474ZM97.7488 80.186V90H96.2788V80.186H97.7488ZM103.531 89.16V90H99.1766V80.186H100.647V89.16H103.531ZM108.466 80.186V81.026H106.45V90H104.98V81.026H102.964V80.186H108.466ZM115.174 82.818C115.174 84.694 114.558 85.128 113.914 85.31C114.558 85.534 115.188 86.01 115.188 87.746V90H113.718V87.746C113.718 86.192 113.34 85.73 112.57 85.73H111.352V84.904H112.598C113.312 84.904 113.69 84.442 113.69 82.958C113.69 81.474 113.312 81.026 112.598 81.026H110.75V90H109.28V80.186H112.892C114.544 80.186 115.174 80.942 115.174 82.818ZM116.182 82.79C116.182 81.138 116.784 80.186 118.282 80.186H120.438C121.936 80.186 122.538 81.138 122.538 82.79V87.466C122.538 89.048 121.95 90 120.438 90H118.282C116.77 90 116.182 89.048 116.182 87.466V82.79ZM121.068 87.466V82.79C121.068 81.432 120.746 81.026 119.99 81.026H118.73C117.974 81.026 117.652 81.432 117.652 82.79V87.466C117.652 88.6 117.974 89.16 118.73 89.16H119.99C120.746 89.16 121.068 88.6 121.068 87.466ZM129.119 87.046C129.119 89.062 128.489 90 126.837 90H123.701V89.16H126.557C127.355 89.16 127.761 88.852 127.761 87.256C127.761 85.856 127.537 85.604 126.417 85.604H125.353C123.939 85.604 123.449 84.918 123.449 82.916C123.449 81.194 124.023 80.186 125.605 80.186H128.335V81.026H125.955C125.185 81.026 124.807 81.376 124.807 82.72C124.807 84.022 124.961 84.33 125.955 84.33H126.949C128.461 84.33 129.119 84.806 129.119 87.046Z" fill="#103778"/>
<path d="M156.76 65.85V69.19C156.76 70.32 156.34 71 155.26 71H152.5V63.99H155.26C156.33 63.99 156.76 64.67 156.76 65.85ZM155.71 69.19V65.85C155.71 64.88 155.48 64.59 154.94 64.59H153.55V70.4H154.94C155.48 70.4 155.71 70 155.71 69.19ZM160.638 71L160.358 69.47H158.488L158.198 71H157.158L158.608 63.99H160.338L161.728 71H160.638ZM159.418 64.59L158.598 68.88H160.258L159.518 64.59H159.418ZM165.317 63.99V64.59H163.877V71H162.827V64.59H161.387V63.99H165.317ZM168.46 71L168.18 69.47H166.31L166.02 71H164.98L166.43 63.99H168.16L169.55 71H168.46ZM167.24 64.59L166.42 68.88H168.08L167.34 64.59H167.24Z" fill="#ADADAD"/>
<path d="M497.47 65.85V69.19C497.47 70 497.7 70.4 498.24 70.4H499.98V71H497.92C496.84 71 496.42 70.32 496.42 69.19V65.85C496.42 64.67 496.85 63.99 497.92 63.99H499.96V64.59H498.24C497.7 64.59 497.47 64.88 497.47 65.85ZM500.639 65.85C500.639 64.67 501.069 63.99 502.139 63.99H503.679C504.749 63.99 505.179 64.67 505.179 65.85V69.19C505.179 70.32 504.759 71 503.679 71H502.139C501.059 71 500.639 70.32 500.639 69.19V65.85ZM504.129 69.19V65.85C504.129 64.88 503.899 64.59 503.359 64.59H502.459C501.919 64.59 501.689 64.88 501.689 65.85V69.19C501.689 70 501.919 70.4 502.459 70.4H503.359C503.899 70.4 504.129 70 504.129 69.19ZM510.37 63.99V71H509.46L506.9 65.3V71H506.08V63.99H507.38L509.54 68.98V63.99H510.37ZM514.873 63.99V64.59H513.433V71H512.383V64.59H510.943V63.99H514.873ZM518.017 71L517.737 69.47H515.867L515.577 71H514.537L515.987 63.99H517.717L519.107 71H518.017ZM516.797 64.59L515.977 68.88H517.637L516.897 64.59H516.797Z" fill="#ADADAD"/>
<path d="M844.76 69.09C844.76 70.34 844.26 71 843.1 71H840.5V63.99H843.09C844.22 63.99 844.65 64.66 844.65 65.83C844.65 66.91 844.32 67.22 843.9 67.42C844.37 67.58 844.76 68.03 844.76 69.09ZM843.7 69.11C843.7 68.11 843.51 67.72 842.93 67.72H841.98V67.13H842.93C843.51 67.13 843.62 66.79 843.62 65.92C843.62 64.94 843.31 64.59 842.85 64.59H841.55V70.4H842.85C843.35 70.4 843.7 70.07 843.7 69.11ZM848.462 71L848.182 69.47H846.312L846.022 71H844.982L846.432 63.99H848.162L849.552 71H848.462ZM847.242 64.59L846.422 68.88H848.082L847.342 64.59H847.242ZM854.399 63.99V71H853.489L850.929 65.3V71H850.109V63.99H851.409L853.569 68.98V63.99H854.399ZM856.363 65.85V69.19C856.363 70 856.593 70.4 857.133 70.4H858.873V71H856.813C855.733 71 855.313 70.32 855.313 69.19V65.85C855.313 64.67 855.743 63.99 856.813 63.99H858.853V64.59H857.133C856.593 64.59 856.363 64.88 856.363 65.85ZM859.531 65.85C859.531 64.67 859.961 63.99 861.031 63.99H862.571C863.641 63.99 864.071 64.67 864.071 65.85V69.19C864.071 70.32 863.651 71 862.571 71H861.031C859.951 71 859.531 70.32 859.531 69.19V65.85ZM863.021 69.19V65.85C863.021 64.88 862.791 64.59 862.251 64.59H861.351C860.811 64.59 860.581 64.88 860.581 65.85V69.19C860.581 70 860.811 70.4 861.351 70.4H862.251C862.791 70.4 863.021 70 863.021 69.19Z" fill="#ADADAD"/>
<path d="M843.91 98.99V99.59H841.56V102.22H843.33V102.81H841.56V106H840.5V98.99H843.91ZM844.287 100.85C844.287 99.67 844.717 98.99 845.787 98.99H847.327C848.397 98.99 848.827 99.67 848.827 100.85V104.19C848.827 105.32 848.407 106 847.327 106H845.787C844.707 106 844.287 105.32 844.287 104.19V100.85ZM847.777 104.19V100.85C847.777 99.88 847.547 99.59 847.007 99.59H846.107C845.567 99.59 845.337 99.88 845.337 100.85V104.19C845.337 105 845.567 105.4 846.107 105.4H847.007C847.547 105.4 847.777 105 847.777 104.19ZM854.018 98.99V106H853.108L850.548 100.3V106H849.728V98.99H851.028L853.188 103.98V98.99H854.018ZM858.522 98.99V99.59H857.082V106H856.032V99.59H854.592V98.99H858.522ZM862.654 105.4V106H859.104V98.99H862.654V99.59H860.154V102.13H861.944V102.72H860.154V105.4H862.654Z" fill="#ADADAD"/>
<path d="M158.07 98.99V106H157.06V100.04L155.8 106H154.77L153.45 100.04V106H152.49V98.99H154.08L155.34 104.89L156.57 98.99H158.07ZM158.983 100.85C158.983 99.67 159.413 98.99 160.483 98.99H162.023C163.093 98.99 163.523 99.67 163.523 100.85V104.19C163.523 105.32 163.103 106 162.023 106H160.483C159.403 106 158.983 105.32 158.983 104.19V100.85ZM162.473 104.19V100.85C162.473 99.88 162.243 99.59 161.703 99.59H160.803C160.263 99.59 160.032 99.88 160.032 100.85V104.19C160.032 105 160.263 105.4 160.803 105.4H161.703C162.243 105.4 162.473 105 162.473 104.19ZM168.703 100.85V104.19C168.703 105.32 168.283 106 167.203 106H164.443V98.99H167.203C168.273 98.99 168.703 99.67 168.703 100.85ZM167.653 104.19V100.85C167.653 99.88 167.423 99.59 166.883 99.59H165.493V105.4H166.883C167.423 105.4 167.653 105 167.653 104.19ZM172.581 106L172.301 104.47H170.431L170.141 106H169.101L170.551 98.99H172.281L173.671 106H172.581ZM171.361 99.59L170.541 103.88H172.201L171.461 99.59H171.361ZM177.358 105.4V106H174.248V98.99H175.298V105.4H177.358ZM179.039 98.99V106H177.989V98.99H179.039ZM184.319 100.85V104.19C184.319 105.32 183.899 106 182.819 106H180.059V98.99H182.819C183.889 98.99 184.319 99.67 184.319 100.85ZM183.269 104.19V100.85C183.269 99.88 183.039 99.59 182.499 99.59H181.109V105.4H182.499C183.039 105.4 183.269 105 183.269 104.19ZM188.197 106L187.917 104.47H186.047L185.757 106H184.717L186.167 98.99H187.897L189.287 106H188.197ZM186.977 99.59L186.157 103.88H187.817L187.077 99.59H186.977ZM194.123 100.85V104.19C194.123 105.32 193.703 106 192.623 106H189.863V98.99H192.623C193.693 98.99 194.123 99.67 194.123 100.85ZM193.073 104.19V100.85C193.073 99.88 192.843 99.59 192.303 99.59H190.913V105.4H192.303C192.843 105.4 193.073 105 193.073 104.19ZM198.589 105.4V106H195.039V98.99H198.589V99.59H196.089V102.13H197.879V102.72H196.089V105.4H198.589Z" fill="#ADADAD"/>
<path d="M497.47 100.85V104.19C497.47 105 497.7 105.4 498.24 105.4H499.98V106H497.92C496.84 106 496.42 105.32 496.42 104.19V100.85C496.42 99.67 496.85 98.99 497.92 98.99H499.96V99.59H498.24C497.7 99.59 497.47 99.88 497.47 100.85ZM503.779 106L503.499 104.47H501.629L501.339 106H500.299L501.749 98.99H503.479L504.869 106H503.779ZM502.559 99.59L501.739 103.88H503.399L502.659 99.59H502.559ZM508.457 98.99V99.59H507.017V106H505.967V99.59H504.527V98.99H508.457ZM512.589 105.4V106H509.039V98.99H512.589V99.59H510.089V102.13H511.879V102.72H510.089V105.4H512.589ZM517.389 102.18V106H514.669C513.589 106 513.149 105.32 513.149 104.19V100.85C513.149 99.67 513.599 98.99 514.669 98.99H516.709V99.59H514.989C514.449 99.59 514.199 99.88 514.199 100.85V104.19C514.199 105 514.449 105.4 514.989 105.4H516.369V102.78H514.809V102.18H517.389ZM518.227 100.85C518.227 99.67 518.657 98.99 519.727 98.99H521.267C522.337 98.99 522.767 99.67 522.767 100.85V104.19C522.767 105.32 522.347 106 521.267 106H519.727C518.647 106 518.227 105.32 518.227 104.19V100.85ZM521.717 104.19V100.85C521.717 99.88 521.487 99.59 520.947 99.59H520.047C519.507 99.59 519.277 99.88 519.277 100.85V104.19C519.277 105 519.507 105.4 520.047 105.4H520.947C521.487 105.4 521.717 105 521.717 104.19ZM527.898 100.87C527.898 102.21 527.458 102.52 526.998 102.65C527.458 102.81 527.908 103.15 527.908 104.39V106H526.858V104.39C526.858 103.28 526.588 102.95 526.038 102.95H525.168V102.36H526.058C526.568 102.36 526.838 102.03 526.838 100.97C526.838 99.91 526.568 99.59 526.058 99.59H524.738V106H523.688V98.99H526.268C527.448 98.99 527.898 99.53 527.898 100.87ZM529.914 98.99V106H528.864V98.99H529.914ZM533.994 106L533.714 104.47H531.844L531.554 106H530.514L531.964 98.99H533.694L535.084 106H533.994ZM532.774 99.59L531.954 103.88H533.614L532.874 99.59H532.774Z" fill="#ADADAD"/>
<rect x="82" y="143.071" width="580.714" height="828.687" rx="2" fill="url(#paint1_linear_2010_7)"/>
<rect x="1248" y="976" width="585.286" height="840" rx="2" transform="rotate(180 1248 976)" fill="url(#paint2_linear_2010_7)"/>
<rect x="84" y="137" width="1162" height="832" fill="#F8F8F8"/>
<path d="M101.52 157.7V164.38C101.52 166.64 100.68 168 98.52 168H93V153.98H98.52C100.66 153.98 101.52 155.34 101.52 157.7ZM99.42 164.38V157.7C99.42 155.76 98.96 155.18 97.88 155.18H95.1V166.8H97.88C98.96 166.8 99.42 166 99.42 164.38ZM110.452 166.8V168H103.352V153.98H110.452V155.18H105.452V160.26H109.032V161.44H105.452V166.8H110.452ZM118.946 153.98V155.18H116.066V168H113.966V155.18H111.086V153.98H118.946ZM125.233 168L124.673 164.94H120.933L120.353 168H118.273L121.173 153.98H124.633L127.413 168H125.233ZM122.793 155.18L121.153 163.76H124.473L122.993 155.18H122.793ZM134.786 166.8V168H128.566V153.98H130.666V166.8H134.786ZM144.608 153.98V168H142.508V161.46H138.108V168H136.008V153.98H138.108V160.26H142.508V153.98H144.608ZM153.713 166.8V168H146.613V153.98H153.713V155.18H148.713V160.26H152.293V161.44H148.713V166.8H153.713ZM162.748 163.78C162.748 166.66 161.848 168 159.488 168H155.008V166.8H159.088C160.228 166.8 160.808 166.36 160.808 164.08C160.808 162.08 160.488 161.72 158.888 161.72H157.368C155.348 161.72 154.648 160.74 154.648 157.88C154.648 155.42 155.468 153.98 157.728 153.98H161.628V155.18H158.228C157.127 155.18 156.588 155.68 156.588 157.6C156.588 159.46 156.808 159.9 158.228 159.9H159.648C161.808 159.9 162.748 160.58 162.748 163.78ZM177.536 157.7V164.38C177.536 166.64 176.696 168 174.536 168H169.016V153.98H174.536C176.676 153.98 177.536 155.34 177.536 157.7ZM175.436 164.38V157.7C175.436 155.76 174.976 155.18 173.896 155.18H171.116V166.8H173.896C174.976 166.8 175.436 166 175.436 164.38ZM185.292 168L184.732 164.94H180.992L180.412 168H178.332L181.232 153.98H184.692L187.472 168H185.292ZM182.852 155.18L181.212 163.76H184.532L183.052 155.18H182.852ZM196.185 163.78C196.185 166.66 195.285 168 192.925 168H188.445V166.8H192.525C193.665 166.8 194.245 166.36 194.245 164.08C194.245 162.08 193.925 161.72 192.325 161.72H190.805C188.785 161.72 188.085 160.74 188.085 157.88C188.085 155.42 188.905 153.98 191.165 153.98H195.065V155.18H191.665C190.565 155.18 190.025 155.68 190.025 157.6C190.025 159.46 190.245 159.9 191.665 159.9H193.085C195.245 159.9 196.185 160.58 196.185 163.78ZM210.973 157.7V164.38C210.973 166.64 210.133 168 207.973 168H202.453V153.98H207.973C210.113 153.98 210.973 155.34 210.973 157.7ZM208.873 164.38V157.7C208.873 155.76 208.413 155.18 207.333 155.18H204.553V166.8H207.333C208.413 166.8 208.873 166 208.873 164.38ZM219.905 166.8V168H212.805V153.98H219.905V155.18H214.905V160.26H218.485V161.44H214.905V166.8H219.905ZM228.939 163.78C228.939 166.66 228.039 168 225.679 168H221.199V166.8H225.279C226.419 166.8 226.999 166.36 226.999 164.08C226.999 162.08 226.679 161.72 225.079 161.72H223.559C221.539 161.72 220.839 160.74 220.839 157.88C220.839 155.42 221.659 153.98 223.919 153.98H227.819V155.18H224.419C223.319 155.18 222.779 155.68 222.779 157.6C222.779 159.46 222.999 159.9 224.419 159.9H225.839C227.999 159.9 228.939 160.58 228.939 163.78ZM238.92 158.26C238.92 161.8 238.26 162.4 235.58 162.4H233.4V161.22H235.34C236.54 161.22 236.86 160.74 236.86 158.22C236.86 155.7 236.54 155.18 235.34 155.18H232.58V168H230.48V153.98H235.58C238.26 153.98 238.92 154.72 238.92 158.26ZM247.307 166.8V168H240.207V153.98H247.307V155.18H242.307V160.26H245.887V161.44H242.307V166.8H247.307ZM256.341 163.78C256.341 166.66 255.441 168 253.081 168H248.601V166.8H252.681C253.821 166.8 254.401 166.36 254.401 164.08C254.401 162.08 254.081 161.72 252.481 161.72H250.961C248.941 161.72 248.241 160.74 248.241 157.88C248.241 155.42 249.061 153.98 251.321 153.98H255.221V155.18H251.821C250.721 155.18 250.181 155.68 250.181 157.6C250.181 159.46 250.401 159.9 251.821 159.9H253.241C255.401 159.9 256.341 160.58 256.341 163.78ZM263.808 168L263.248 164.94H259.508L258.928 168H256.848L259.748 153.98H263.208L265.988 168H263.808ZM261.368 155.18L259.728 163.76H263.048L261.568 155.18H261.368ZM274.701 163.78C274.701 166.66 273.801 168 271.441 168H266.961V166.8H271.041C272.181 166.8 272.761 166.36 272.761 164.08C272.761 162.08 272.441 161.72 270.841 161.72H269.321C267.301 161.72 266.601 160.74 266.601 157.88C266.601 155.42 267.421 153.98 269.681 153.98H273.581V155.18H270.181C269.081 155.18 268.541 155.68 268.541 157.6C268.541 159.46 268.761 159.9 270.181 159.9H271.601C273.761 159.9 274.701 160.58 274.701 163.78Z" fill="#103778"/>
<circle cx="1209" cy="85" r="26" fill="url(#paint3_linear_2010_7)"/>
<path d="M1219.73 74.3763C1219.65 74.2073 1219.51 74.0655 1219.35 73.9661C1219.19 73.8668 1219 73.8137 1218.81 73.8125H1209.19C1208.91 73.8125 1208.65 73.9212 1208.46 74.1145C1208.26 74.3079 1208.16 74.5702 1208.16 74.8438C1208.16 75.1173 1208.26 75.3796 1208.46 75.573C1208.65 75.7663 1208.91 75.875 1209.19 75.875H1216.75L1214.21 79.395C1214.05 79.6138 1213.98 79.8874 1214.02 80.1556C1214.06 80.4237 1214.21 80.6645 1214.43 80.825C1214.65 80.9855 1214.92 81.0524 1215.19 81.0112C1215.46 80.9699 1215.7 80.8238 1215.86 80.605L1219.64 75.4488C1219.75 75.2976 1219.82 75.1164 1219.84 74.9265C1219.86 74.7366 1219.82 74.5457 1219.73 74.3763Z" fill="white" stroke="white" stroke-width="0.00064"/>
<path d="M1203.89 74.1151C1203.89 74.1151 1203.89 74.1151 1203.82 74.1151C1203.75 74.0474 1203.66 73.9918 1203.56 73.9501C1203.47 73.9128 1203.36 73.8896 1203.26 73.8813H1198.19C1198 73.8825 1197.81 73.9356 1197.65 74.0349C1197.49 74.1343 1197.35 74.2761 1197.27 74.4451C1197.18 74.6145 1197.14 74.8054 1197.16 74.9953C1197.18 75.1853 1197.25 75.3664 1197.36 75.5176L1204.72 85.5V96.1562C1204.72 96.4288 1204.83 96.6889 1205.02 96.8816C1205.22 97.0742 1205.48 97.1841 1205.75 97.1875H1211.25C1211.52 97.1841 1211.78 97.0742 1211.98 96.8816C1212.17 96.6889 1212.28 96.4288 1212.28 96.1562V85.5L1212.36 85.3762L1217.4 90.3537C1217.49 90.4503 1217.6 90.5266 1217.73 90.5786C1217.86 90.6305 1217.99 90.6569 1218.12 90.6562C1218.26 90.6578 1218.39 90.6316 1218.52 90.5797C1218.65 90.5277 1218.76 90.4508 1218.85 90.3537C1219.05 90.1604 1219.16 89.8983 1219.16 89.625C1219.16 89.3518 1219.05 89.0897 1218.85 88.8962L1203.89 74.1151ZM1210.42 84.5512C1210.29 84.7241 1210.22 84.9372 1210.22 85.1562V95.125H1206.78V85.1562C1206.78 84.9372 1206.71 84.7241 1206.57 84.5512L1200.25 75.8751H1202.75L1210.88 83.9187L1210.42 84.5512Z" fill="white" stroke="white" stroke-width="0.00064"/>
<rect width="50" height="1500" fill="url(#paint4_linear_2010_7)"/>
<g filter="url(#filter1_d_2010_7)">
<rect y="123" width="54" height="48" rx="2" fill="url(#paint5_linear_2010_7)" fill-opacity="0.9" shape-rendering="crispEdges"/>
</g>
<rect y="125" width="52" height="44" fill="#103778"/>
<path d="M40.2734 28H45.415V30.0142H42.4707V32.0576H45.2686V34.0352H42.5V36.584H45.4883V38.5908H40.2734V28Z" fill="white"/>
<path d="M37.1387 34.0791V28H39.2334V38.5908H37.0361L34.8682 32.5117V38.5908H32.7881V28H34.9854L37.1387 34.0791Z" fill="white"/>
<path d="M25.4199 28H31.814V38.5908H25.4199V28ZM27.6465 36.584H29.5947V30.0142H27.6465V36.584Z" fill="white"/>
<path d="M22.3657 38.5908L21.0474 34.7603H20.4614V38.5908H18.2422V29.4941L19.8535 28H24.3872V34.731H23.186L24.5923 38.5908H22.3657ZM22.168 32.7754V30.0142H20.4614V32.7754H22.168Z" fill="white"/>
<path d="M22.3657 38.5908L21.0474 34.7603H20.4614V38.5908H18.2422V29.4941L19.8535 28H24.3872V34.731H23.186L24.5923 38.5908H22.3657ZM22.168 32.7754V30.0142H20.4614V32.7754H22.168Z" fill="white"/>
<path d="M17.2534 38.5908H10.9912V28H13.2104V36.584H15.0269V28H17.2534V38.5908Z" fill="white"/>
<path d="M7.21924 34.0352V38.5908H5V29.4648L6.46484 28H10.061V30.0142H7.21924V32.0576H9.84131V34.0352H7.21924Z" fill="white"/>
<g opacity="0.8">
<path d="M19 19.9544L21.9544 16.0907L24.6819 22L26.9548 12L28.3185 15.1819L30.3641 12.6819L31.7278 15.6363" stroke="white" stroke-width="1.472" stroke-linecap="round" stroke-linejoin="round"/>
</g>
<path d="M36.7558 48.1888H35.9392V43H36.7558V48.1888Z" fill="white" fill-opacity="0.8"/>
<path d="M33.0739 43.0072H34.895C35.1239 43.2361 35.3515 43.4649 35.578 43.6938V45.1319C35.5659 45.1439 35.4431 45.2294 35.2094 45.3884C35.4503 45.4631 35.5731 45.5016 35.578 45.504V47.4986C35.3515 47.7299 35.1239 47.9587 34.895 48.1851H33.0739C33.0715 48.1851 33.0703 48.1839 33.0703 48.1815V43.0108C33.0703 43.0084 33.0715 43.0072 33.0739 43.0072ZM33.8833 44.0226V45.4173C34.4494 45.0897 34.7433 44.9211 34.765 44.9115V44.0226C34.6397 43.8973 34.547 43.8058 34.4867 43.748H34.1615L33.8833 44.0226ZM33.8833 46.2376V47.4444H33.9773C34.0857 47.4444 34.2555 47.4444 34.4867 47.4444C34.6722 47.2613 34.765 47.1698 34.765 47.1698V45.7281H34.7614C34.176 46.0653 33.8833 46.2351 33.8833 46.2376Z" fill="white" fill-opacity="0.8"/>
<path d="M28.2717 43.0072H29.4063C29.4087 43.0096 29.5845 43.2385 29.9338 43.6938V43.9467C29.9338 44.1876 29.935 44.5321 29.9374 44.9801C29.3159 45.3511 28.9715 45.5582 28.904 45.6016C29.3545 46.2207 29.5954 46.5495 29.6267 46.588C29.6195 46.4748 29.611 46.258 29.6014 45.9376L29.605 45.934L30.4108 46.2339V46.2412V47.4986L30.8733 48.1851L30.8661 48.1888H30.0314C30.0266 48.1888 29.9808 48.1334 29.8941 48.0225C29.8483 48.0707 29.7929 48.1261 29.7279 48.1888H27.9609C27.8381 48.0707 27.6092 47.8431 27.2744 47.5058V45.6016C27.2889 45.5896 27.4129 45.5221 27.6466 45.3993C27.7189 45.3583 27.7598 45.3354 27.7694 45.3306C27.6562 45.1692 27.5948 45.0789 27.5852 45.0596V43.6938C28.038 43.2361 28.2669 43.0072 28.2717 43.0072ZM28.3982 44.0262V44.8356C28.4945 44.9801 28.5451 45.0536 28.5499 45.056C29.0197 44.7838 29.263 44.6417 29.2798 44.6296V44.0262C29.1859 43.9322 29.0931 43.8407 29.0016 43.7516H28.6764C28.4933 43.9322 28.4006 44.0238 28.3982 44.0262ZM28.0874 46.1689V47.1734L28.3656 47.448H29.3232C29.3256 47.448 29.3473 47.4263 29.3882 47.383V47.3794C28.6969 46.5049 28.3464 46.0605 28.3367 46.046C28.3319 46.046 28.2488 46.087 28.0874 46.1689Z" fill="white" fill-opacity="0.8"/>
<path d="M24.3947 48.1888H23.2493L22.5627 47.5022V46.0713L23.3794 46.5555V47.1662L23.6576 47.4444H23.99L24.261 47.1662V46.3857L22.5627 45.28V43.6865L23.2493 43H24.3911L25.0776 43.6793V44.9367L24.261 44.4706V44.0153L23.99 43.7371H23.6576L23.3794 44.0153V44.832L25.0776 45.8762V47.5022L24.3947 48.1888Z" fill="white" fill-opacity="0.8"/>
<path d="M20.3587 48.1888C20.1322 47.9575 19.9034 47.7287 19.6721 47.5022L19.683 43.6865C19.9094 43.4553 20.1382 43.2264 20.3695 43H21.5221C21.7871 43.2626 22.0136 43.4914 22.2015 43.6865L22.1978 47.4986L21.5113 48.1815L20.3587 48.1888ZM21.103 47.448L21.3812 47.1734V46.0677L21.3885 44.0153L21.1138 43.7371H20.7706C20.6959 43.8166 20.6056 43.9094 20.4996 44.0153L20.496 47.1734L20.767 47.448H21.103Z" fill="white" fill-opacity="0.8"/>
<path d="M16.7812 48.1888L16.7885 43H18.6277L19.3106 43.6865L19.307 46.6206L19.2997 47.4986L18.6204 48.1815L16.7812 48.1888ZM18.2121 47.448L18.4831 47.1734C18.4879 46.8048 18.4904 46.4363 18.4904 46.0677V44.0153L18.2194 43.7371L17.6051 43.7443L17.5979 47.448H18.2121Z" fill="white" fill-opacity="0.8"/>
<path d="M16.42 48.1888L15.5997 48.1815V46.0244L14.7109 46.4688V48.1815L13.8906 48.1888L13.8979 43.6865L14.5808 43H15.7298L16.4127 43.6865L16.42 48.1888ZM14.7109 45.6486L15.5997 45.2114V44.0153C15.5034 43.9262 15.4106 43.8335 15.3215 43.7371H14.9891C14.9 43.8335 14.8072 43.9262 14.7109 44.0153V45.6486Z" fill="white" fill-opacity="0.8"/>
<path d="M11 48.1888L11.0072 43H12.8464L13.5293 43.6865L13.5257 46.6206L13.5185 47.4986L12.8392 48.1815L11 48.1888ZM12.4309 47.448L12.7019 47.1734C12.7067 46.8048 12.7091 46.4363 12.7091 46.0677V44.0153L12.4381 43.7371L11.8238 43.7443L11.8166 47.448H12.4309Z" fill="white" fill-opacity="0.8"/>
<g clip-path="url(#clip1_2010_7)">
<path d="M16.9913 112.254C16.9913 112.254 16.9718 112.746 17.4522 112.746C18.0498 112.746 22.9978 112.74 22.9978 112.74L23.0059 108.195C23.0059 108.195 22.9277 107.446 23.6548 107.446H25.9558C26.8156 107.446 26.7627 108.195 26.7627 108.195L26.7529 112.725C26.7529 112.725 31.4444 112.725 32.1813 112.725C32.7911 112.725 32.7634 112.113 32.7634 112.113V103.735L25.1131 96.9301L16.9913 103.735V112.254Z" fill="white" fill-opacity="0.3"/>
<path d="M14 103.102C14 103.102 14.6896 104.373 16.1935 103.102L25.1808 95.4987L33.607 103.055C35.3478 104.31 36 103.055 36 103.055L25.1808 93.2539L14 103.102Z" fill="white" fill-opacity="0.3"/>
<path d="M33.4028 95.4807H31.2354L31.2443 98.109L33.4028 99.9402V95.4807Z" fill="white" fill-opacity="0.3"/>
</g>
<path d="M25.5 149.417L21.6667 149.417M34.125 147.5V146.733C34.125 145.66 34.125 145.123 33.9161 144.713C33.7324 144.353 33.4391 144.059 33.0785 143.876C32.6685 143.667 32.1318 143.667 31.0583 143.667H16.875M34.125 147.5V151.333M34.125 147.5H32.2083C31.1498 147.5 30.2917 148.358 30.2917 149.417C30.2917 150.475 31.1498 151.333 32.2083 151.333H34.125M16.875 143.667V152.1C16.875 153.173 16.875 153.71 17.0839 154.12C17.2677 154.481 17.5609 154.774 17.9215 154.958C18.3315 155.167 18.8682 155.167 19.9417 155.167H31.0583C32.1318 155.167 32.6685 155.167 33.0785 154.958C33.4391 154.774 33.7324 154.481 33.9161 154.12C34.125 153.71 34.125 153.173 34.125 152.1V151.333M16.875 143.667V142.9C16.875 141.827 16.875 141.29 17.0839 140.88C17.2677 140.519 17.5609 140.226 17.9215 140.042C18.3315 139.833 18.8682 139.833 19.9417 139.833H28.1833C29.2568 139.833 29.7935 139.833 30.2035 140.042C30.5641 140.226 30.8574 140.519 31.0411 140.88C31.25 141.29 31.25 141.827 31.25 142.9V143.667" stroke="white" stroke-width="1.6" stroke-linecap="round" stroke-linejoin="round"/>
<rect x="82" y="994.525" width="580.714" height="295.96" rx="2" fill="url(#paint6_linear_2010_7)"/>
<rect x="1248" y="1292" width="585.286" height="300" rx="2" transform="rotate(180 1248 1292)" fill="url(#paint7_linear_2010_7)"/>
<rect x="84" y="994" width="1162" height="295" fill="#F8F8F8"/>
<path d="M101.52 1013.7V1020.38C101.52 1022.64 100.68 1024 98.52 1024H93V1009.98H98.52C100.66 1009.98 101.52 1011.34 101.52 1013.7ZM99.42 1020.38V1013.7C99.42 1011.76 98.96 1011.18 97.88 1011.18H95.1V1022.8H97.88C98.96 1022.8 99.42 1022 99.42 1020.38ZM110.452 1022.8V1024H103.352V1009.98H110.452V1011.18H105.452V1016.26H109.032V1017.44H105.452V1022.8H110.452ZM118.946 1009.98V1011.18H116.066V1024H113.966V1011.18H111.086V1009.98H118.946ZM125.233 1024L124.673 1020.94H120.933L120.353 1024H118.273L121.173 1009.98H124.633L127.413 1024H125.233ZM122.793 1011.18L121.153 1019.76H124.473L122.993 1011.18H122.793ZM134.786 1022.8V1024H128.566V1009.98H130.666V1022.8H134.786ZM144.608 1009.98V1024H142.508V1017.46H138.108V1024H136.008V1009.98H138.108V1016.26H142.508V1009.98H144.608ZM153.713 1022.8V1024H146.613V1009.98H153.713V1011.18H148.713V1016.26H152.293V1017.44H148.713V1022.8H153.713ZM162.748 1019.78C162.748 1022.66 161.848 1024 159.488 1024H155.008V1022.8H159.088C160.228 1022.8 160.808 1022.36 160.808 1020.08C160.808 1018.08 160.488 1017.72 158.888 1017.72H157.368C155.348 1017.72 154.648 1016.74 154.648 1013.88C154.648 1011.42 155.468 1009.98 157.728 1009.98H161.628V1011.18H158.228C157.127 1011.18 156.588 1011.68 156.588 1013.6C156.588 1015.46 156.808 1015.9 158.228 1015.9H159.648C161.808 1015.9 162.748 1016.58 162.748 1019.78ZM177.536 1013.7V1020.38C177.536 1022.64 176.696 1024 174.536 1024H169.016V1009.98H174.536C176.676 1009.98 177.536 1011.34 177.536 1013.7ZM175.436 1020.38V1013.7C175.436 1011.76 174.976 1011.18 173.896 1011.18H171.116V1022.8H173.896C174.976 1022.8 175.436 1022 175.436 1020.38ZM186.467 1022.8V1024H179.367V1009.98H186.467V1011.18H181.467V1016.26H185.047V1017.44H181.467V1022.8H186.467ZM199.488 1009.98V1011.18H194.788V1016.44H198.328V1017.62H194.788V1024H192.668V1009.98H199.488ZM200.498 1020.38V1009.98H202.658V1020.38C202.658 1022.24 203.118 1022.8 204.198 1022.8H205.918C207.018 1022.8 207.458 1022.24 207.458 1020.38V1009.98H209.538V1020.38C209.538 1022.64 208.658 1024 206.498 1024H203.538C201.258 1024 200.498 1022.64 200.498 1020.38ZM218.458 1009.98V1011.18H215.577V1024H213.478V1011.18H210.598V1009.98H218.458ZM219.521 1020.38V1009.98H221.681V1020.38C221.681 1022.24 222.141 1022.8 223.221 1022.8H224.941C226.041 1022.8 226.481 1022.24 226.481 1020.38V1009.98H228.561V1020.38C228.561 1022.64 227.681 1024 225.521 1024H222.561C220.281 1024 219.521 1022.64 219.521 1020.38ZM238.881 1013.74C238.881 1016.42 238.001 1017.04 237.081 1017.3C238.001 1017.62 238.901 1018.3 238.901 1020.78V1024H236.801V1020.78C236.801 1018.56 236.261 1017.9 235.161 1017.9H233.421V1016.72H235.201C236.221 1016.72 236.761 1016.06 236.761 1013.94C236.761 1011.82 236.221 1011.18 235.201 1011.18H232.561V1024H230.461V1009.98H235.621C237.981 1009.98 238.881 1011.06 238.881 1013.74ZM240.32 1013.7C240.32 1011.34 241.18 1009.98 243.32 1009.98H246.4C248.54 1009.98 249.4 1011.34 249.4 1013.7V1020.38C249.4 1022.64 248.56 1024 246.4 1024H243.32C241.16 1024 240.32 1022.64 240.32 1020.38V1013.7ZM247.3 1020.38V1013.7C247.3 1011.76 246.84 1011.18 245.76 1011.18H243.96C242.88 1011.18 242.42 1011.76 242.42 1013.7V1020.38C242.42 1022 242.88 1022.8 243.96 1022.8H245.76C246.84 1022.8 247.3 1022 247.3 1020.38Z" fill="#103778"/>
<path d="M22 237H21V235.23C21.2356 235.018 21.4332 234.771 21.5901 234.5H22C22.8271 234.5 23.5 233.827 23.5 233C23.5 232.344 23.0899 231.801 22.5 231.591V230C22.5 228.343 21.1569 227 19.5 227H18.5C16.8431 227 15.5 228.343 15.5 230V231.592C14.9193 231.799 14.5 232.349 14.5 233C14.5 233.844 15.1873 234.5 16 234.5H16.4098C16.5667 234.771 16.7644 235.018 17 235.23V237H16C14.895 237 14 237.895 14 239V243C14 243.55 14.45 244 15 244H16V242C16 241.725 16.225 241.5 16.5 241.5C16.775 241.5 17 241.725 17 242V244H21V242C21 241.725 21.225 241.5 21.5 241.5C21.775 241.5 22 241.725 22 242V244H23C23.55 244 24 243.55 24 243V239C24 237.895 23.105 237 22 237ZM17 233V232C17 230.985 17.7593 230.145 18.7466 230.016C18.9561 230.477 19.2929 230.876 19.7202 231.164C20.0933 231.416 20.5171 231.569 20.9624 231.613C20.9878 231.739 21 231.867 21 232V233C21 233.625 20.7007 234.223 20.1978 234.602C18.9405 235.556 17 234.691 17 233ZM19.9782 235.837C19.9853 235.834 19.9929 235.833 20 235.831V236.891C19.5853 237.703 18.4141 237.701 18 236.891V235.831C18.0073 235.834 18.0152 235.834 18.0225 235.837C18.6866 236.065 19.403 236.034 19.9782 235.837ZM22 233.5H21.9523C22.0145 233.138 22 232.904 22 232.5C22.6579 232.5 22.6607 233.5 22 233.5ZM16 233.5C15.3421 233.5 15.3393 232.5 16 232.5C16 232.905 15.9854 233.137 16.0477 233.5H16ZM35 237H34V235.23C34.0808 235.158 34.1568 235.081 34.2288 235H35.5C36.0523 235 36.5 234.552 36.5 234V231.5C36.5 229.015 34.4853 227 32 227C29.5147 227 27.5 229.015 27.5 231.5V234C27.5 234.552 27.9478 235 28.5 235H29.7711C29.8431 235.081 29.9191 235.157 30 235.23V237H29C27.895 237 27 237.895 27 239V243C27 243.55 27.45 244 28 244H29V242C29 241.725 29.225 241.5 29.5 241.5C29.775 241.5 30 241.725 30 242V244H34V242C34 241.725 34.225 241.5 34.5 241.5C34.775 241.5 35 241.725 35 242V244H36C36.55 244 37 243.55 37 243V239C37 237.895 36.105 237 35 237ZM31.3696 234.895C30.5457 234.63 30 233.844 30 233V232C30 230.985 30.7593 230.145 31.7466 230.016C31.9561 230.477 32.293 230.876 32.7202 231.164C33.0933 231.416 33.5171 231.569 33.9624 231.613C33.9878 231.739 34 231.867 34 232V233C34 233.625 33.7007 234.223 33.1978 234.602C32.6829 234.993 31.979 235.09 31.3696 234.895ZM31 235.831C31.0073 235.834 31.0152 235.834 31.0225 235.837C31.5952 236.033 32.3181 236.063 32.9783 235.837C32.9853 235.834 32.993 235.833 33.0001 235.831V236.854C32.8214 237.142 32.3921 237.877 32.0001 238.874C31.608 237.877 31.1788 237.142 31.0001 236.854V235.831H31ZM28.3801 224.6L26.3488 226.653C25.8914 227.116 25.1486 227.116 24.6912 226.653L22.6599 224.6C21.9193 223.851 21.7919 222.648 22.4341 221.812C23.21 220.802 24.6546 220.734 25.52 221.609C26.3854 220.734 27.8301 220.802 28.606 221.812C29.2481 222.648 29.1206 223.851 28.3801 224.6Z" fill="white" fill-opacity="0.3" stroke="black" stroke-width="0.00064"/>
<path d="M23.5833 192.333V190.417M23.5833 190.417V188.5M23.5833 190.417L25.5 190.417M23.5833 190.417L21.6667 190.417M34.125 188.5V187.733C34.125 186.66 34.125 186.123 33.9161 185.713C33.7324 185.353 33.4391 185.059 33.0785 184.876C32.6685 184.667 32.1318 184.667 31.0583 184.667H16.875M34.125 188.5V192.333M34.125 188.5H32.2083C31.1498 188.5 30.2917 189.358 30.2917 190.417C30.2917 191.475 31.1498 192.333 32.2083 192.333H34.125M16.875 184.667V193.1C16.875 194.173 16.875 194.71 17.0839 195.12C17.2677 195.481 17.5609 195.774 17.9215 195.958C18.3315 196.167 18.8682 196.167 19.9417 196.167H31.0583C32.1318 196.167 32.6685 196.167 33.0785 195.958C33.4391 195.774 33.7324 195.481 33.9161 195.12C34.125 194.71 34.125 194.173 34.125 193.1V192.333M16.875 184.667V183.9C16.875 182.827 16.875 182.29 17.0839 181.88C17.2677 181.519 17.5609 181.226 17.9215 181.042C18.3315 180.833 18.8682 180.833 19.9417 180.833H28.1833C29.2568 180.833 29.7935 180.833 30.2035 181.042C30.5641 181.226 30.8574 181.519 31.0411 181.88C31.25 182.29 31.25 182.827 31.25 183.9V184.667" stroke="white" stroke-opacity="0.3" stroke-width="1.6" stroke-linecap="round" stroke-linejoin="round"/>
</g>
<defs>
<filter id="filter0_d_2010_7" x="78" y="48" width="1174" height="78" filterUnits="userSpaceOnUse" color-interpolation-filters="sRGB">
<feFlood flood-opacity="0" result="BackgroundImageFix"/>
<feColorMatrix in="SourceAlpha" type="matrix" values="0 0 0 0 0 0 0 0 0 0 0 0 0 0 0 0 0 0 127 0" result="hardAlpha"/>
<feOffset dy="2"/>
<feGaussianBlur stdDeviation="2"/>
<feComposite in2="hardAlpha" operator="out"/>
<feColorMatrix type="matrix" values="0 0 0 0 0 0 0 0 0 0 0 0 0 0 0 0 0 0 0.1 0"/>
<feBlend mode="normal" in2="BackgroundImageFix" result="effect1_dropShadow_2010_7"/>
<feBlend mode="normal" in="SourceGraphic" in2="effect1_dropShadow_2010_7" result="shape"/>
</filter>
<filter id="filter1_d_2010_7" x="-2" y="121" width="62" height="56" filterUnits="userSpaceOnUse" color-interpolation-filters="sRGB">
<feFlood flood-opacity="0" result="BackgroundImageFix"/>
<feColorMatrix in="SourceAlpha" type="matrix" values="0 0 0 0 0 0 0 0 0 0 0 0 0 0 0 0 0 0 127 0" result="hardAlpha"/>
<feOffset dx="2" dy="2"/>
<feGaussianBlur stdDeviation="2"/>
<feComposite in2="hardAlpha" operator="out"/>
<feColorMatrix type="matrix" values="0 0 0 0 0 0 0 0 0 0 0 0 0 0 0 0 0 0 0.25 0"/>
<feBlend mode="normal" in2="BackgroundImageFix" result="effect1_dropShadow_2010_7"/>
<feBlend mode="normal" in="SourceGraphic" in2="effect1_dropShadow_2010_7" result="shape"/>
</filter>
<linearGradient id="paint0_linear_2010_7" x1="666.839" y1="85" x2="675.733" y2="175.955" gradientUnits="userSpaceOnUse">
<stop stop-color="#FAFAFA"/>
<stop offset="1" stop-color="#F2F2F2"/>
</linearGradient>
<linearGradient id="paint1_linear_2010_7" x1="85.998" y1="971.757" x2="778.901" y2="622.728" gradientUnits="userSpaceOnUse">
<stop stop-color="#103778"/>
<stop offset="0.045" stop-color="#1758C5"/>
<stop offset="0.475" stop-color="#1758C5" stop-opacity="0"/>
</linearGradient>
<linearGradient id="paint2_linear_2010_7" x1="1252.03" y1="1816" x2="1952" y2="1465.42" gradientUnits="userSpaceOnUse">
<stop stop-color="#103778"/>
<stop offset="0.045" stop-color="#1758C5"/>
<stop offset="0.475" stop-color="#1758C5" stop-opacity="0"/>
</linearGradient>
<linearGradient id="paint3_linear_2010_7" x1="1209" y1="59" x2="1209" y2="111" gradientUnits="userSpaceOnUse">
<stop stop-color="#103778"/>
<stop offset="1" stop-color="#1549A0"/>
</linearGradient>
<linearGradient id="paint4_linear_2010_7" x1="25" y1="0" x2="25" y2="1500" gradientUnits="userSpaceOnUse">
<stop stop-color="#103778"/>
<stop offset="1" stop-color="#1549A0"/>
</linearGradient>
<linearGradient id="paint5_linear_2010_7" x1="5.4" y1="149.5" x2="53.9768" y2="148.439" gradientUnits="userSpaceOnUse">
<stop stop-color="#103778" stop-opacity="0"/>
<stop offset="0.59" stop-color="#7D1E11"/>
<stop offset="1" stop-color="#E3371E"/>
</linearGradient>
<linearGradient id="paint6_linear_2010_7" x1="85.998" y1="1290.48" x2="376.609" y2="880.602" gradientUnits="userSpaceOnUse">
<stop stop-color="#103778"/>
<stop offset="0.045" stop-color="#1758C5"/>
<stop offset="0.475" stop-color="#1758C5" stop-opacity="0"/>
</linearGradient>
<linearGradient id="paint7_linear_2010_7" x1="1252.03" y1="1592" x2="1547.16" y2="1178.11" gradientUnits="userSpaceOnUse">
<stop stop-color="#103778"/>
<stop offset="0.045" stop-color="#1758C5"/>
<stop offset="0.475" stop-color="#1758C5" stop-opacity="0"/>
</linearGradient>
<clipPath id="clip0_2010_7">
<rect width="1280" height="1500" fill="white"/>
</clipPath>
<clipPath id="clip1_2010_7">
<rect width="22" height="22" fill="white" transform="translate(14 92)"/>
</clipPath>
</defs>
</svg>
