<svg width="1280" height="980" viewBox="0 0 1280 980" fill="none" xmlns="http://www.w3.org/2000/svg">
<g clip-path="url(#clip0_2016_229)">
<rect width="1280" height="980" fill="white"/>
<rect x="82" y="426.385" width="580.714" height="513.983" rx="2" fill="url(#paint0_linear_2016_229)"/>
<rect x="1248" y="943" width="585.286" height="521" rx="2" transform="rotate(180 1248 943)" fill="url(#paint1_linear_2016_229)"/>
<rect x="84" y="422.62" width="1162" height="516.038" fill="#F8F8F8"/>
<path d="M95.328 27.58V36.932C95.328 40.096 94.152 42 91.128 42H83.4V22.372H91.128C94.124 22.372 95.328 24.276 95.328 27.58ZM92.388 36.932V27.58C92.388 24.864 91.744 24.052 90.232 24.052H86.34V40.32H90.232C91.744 40.32 92.388 39.2 92.388 36.932ZM107.832 40.32V42H97.8922V22.372H107.832V24.052H100.832V31.164H105.844V32.816H100.832V40.32H107.832ZM120.48 36.092C120.48 40.124 119.22 42 115.916 42H109.644V40.32H115.356C116.952 40.32 117.764 39.704 117.764 36.512C117.764 33.712 117.316 33.208 115.076 33.208H112.948C110.12 33.208 109.14 31.836 109.14 27.832C109.14 24.388 110.288 22.372 113.452 22.372H118.912V24.052H114.152C112.612 24.052 111.856 24.752 111.856 27.44C111.856 30.044 112.164 30.66 114.152 30.66H116.14C119.164 30.66 120.48 31.612 120.48 36.092ZM134.454 28.364C134.454 33.32 133.53 34.16 129.778 34.16H126.726V32.508H129.442C131.122 32.508 131.57 31.836 131.57 28.308C131.57 24.78 131.122 24.052 129.442 24.052H125.578V42H122.638V22.372H129.778C133.53 22.372 134.454 23.408 134.454 28.364ZM146.195 40.32V42H136.255V22.372H146.195V24.052H139.195V31.164H144.207V32.816H139.195V40.32H146.195ZM158.843 36.092C158.843 40.124 157.583 42 154.279 42H148.007V40.32H153.719C155.315 40.32 156.127 39.704 156.127 36.512C156.127 33.712 155.679 33.208 153.439 33.208H151.311C148.483 33.208 147.503 31.836 147.503 27.832C147.503 24.388 148.651 22.372 151.815 22.372H157.275V24.052H152.515C150.975 24.052 150.219 24.752 150.219 27.44C150.219 30.044 150.527 30.66 152.515 30.66H154.503C157.527 30.66 158.843 31.612 158.843 36.092ZM169.296 42L168.512 37.716H163.276L162.464 42H159.552L163.612 22.372H168.456L172.348 42H169.296ZM165.88 24.052L163.584 36.064H168.232L166.16 24.052H165.88ZM184.547 36.092C184.547 40.124 183.287 42 179.983 42H173.711V40.32H179.423C181.019 40.32 181.831 39.704 181.831 36.512C181.831 33.712 181.383 33.208 179.143 33.208H177.015C174.187 33.208 173.207 31.836 173.207 27.832C173.207 24.388 174.355 22.372 177.519 22.372H182.979V24.052H178.219C176.678 24.052 175.923 24.752 175.923 27.44C175.923 30.044 176.231 30.66 178.219 30.66H180.207C183.231 30.66 184.547 31.612 184.547 36.092ZM205.25 27.58V36.932C205.25 40.096 204.074 42 201.05 42H193.322V22.372H201.05C204.046 22.372 205.25 24.276 205.25 27.58ZM202.31 36.932V27.58C202.31 24.864 201.666 24.052 200.154 24.052H196.262V40.32H200.154C201.666 40.32 202.31 39.2 202.31 36.932ZM207.59 27.58C207.59 24.276 208.794 22.372 211.79 22.372H216.102C219.098 22.372 220.302 24.276 220.302 27.58V36.932C220.302 40.096 219.126 42 216.102 42H211.79C208.766 42 207.59 40.096 207.59 36.932V27.58ZM217.362 36.932V27.58C217.362 24.864 216.718 24.052 215.206 24.052H212.686C211.174 24.052 210.53 24.864 210.53 27.58V36.932C210.53 39.2 211.174 40.32 212.686 40.32H215.206C216.718 40.32 217.362 39.2 217.362 36.932ZM232.214 27.58V36.932C232.214 39.2 232.858 40.32 234.37 40.32H239.242V42H233.474C230.45 42 229.274 40.096 229.274 36.932V27.58C229.274 24.276 230.478 22.372 233.474 22.372H239.186V24.052H234.37C232.858 24.052 232.214 24.864 232.214 27.58ZM249.878 42L249.094 37.716H243.858L243.046 42H240.134L244.194 22.372H249.038L252.93 42H249.878ZM246.462 24.052L244.166 36.064H248.814L246.742 24.052H246.462ZM265.129 36.092C265.129 40.124 263.869 42 260.565 42H254.293V40.32H260.005C261.601 40.32 262.413 39.704 262.413 36.512C262.413 33.712 261.965 33.208 259.725 33.208H257.597C254.769 33.208 253.789 31.836 253.789 27.832C253.789 24.388 254.937 22.372 258.101 22.372H263.561V24.052H258.801C257.261 24.052 256.505 24.752 256.505 27.44C256.505 30.044 256.813 30.66 258.801 30.66H260.789C263.813 30.66 265.129 31.612 265.129 36.092ZM275.581 42L274.797 37.716H269.561L268.749 42H265.837L269.897 22.372H274.741L278.633 42H275.581ZM272.165 24.052L269.869 36.064H274.517L272.445 24.052H272.165ZM288.956 40.32V42H280.248V22.372H283.188V40.32H288.956Z" fill="#103778"/>
<g filter="url(#filter0_d_2016_229)">
<rect x="82" y="50" width="1166" height="40" fill="url(#paint2_linear_2016_229)"/>
</g>
<path d="M95.474 65.186V66.026H92.184V69.708H94.662V70.534H92.184V75H90.7V65.186H95.474ZM97.7488 65.186V75H96.2788V65.186H97.7488ZM103.531 74.16V75H99.1766V65.186H100.647V74.16H103.531ZM108.466 65.186V66.026H106.45V75H104.98V66.026H102.964V65.186H108.466ZM115.174 67.818C115.174 69.694 114.558 70.128 113.914 70.31C114.558 70.534 115.188 71.01 115.188 72.746V75H113.718V72.746C113.718 71.192 113.34 70.73 112.57 70.73H111.352V69.904H112.598C113.312 69.904 113.69 69.442 113.69 67.958C113.69 66.474 113.312 66.026 112.598 66.026H110.75V75H109.28V65.186H112.892C114.544 65.186 115.174 65.942 115.174 67.818ZM116.182 67.79C116.182 66.138 116.784 65.186 118.282 65.186H120.438C121.936 65.186 122.538 66.138 122.538 67.79V72.466C122.538 74.048 121.95 75 120.438 75H118.282C116.77 75 116.182 74.048 116.182 72.466V67.79ZM121.068 72.466V67.79C121.068 66.432 120.746 66.026 119.99 66.026H118.73C117.974 66.026 117.652 66.432 117.652 67.79V72.466C117.652 73.6 117.974 74.16 118.73 74.16H119.99C120.746 74.16 121.068 73.6 121.068 72.466ZM129.119 72.046C129.119 74.062 128.489 75 126.837 75H123.701V74.16H126.557C127.355 74.16 127.761 73.852 127.761 72.256C127.761 70.856 127.537 70.604 126.417 70.604H125.353C123.939 70.604 123.449 69.918 123.449 67.916C123.449 66.194 124.023 65.186 125.605 65.186H128.335V66.026H125.955C125.185 66.026 124.807 66.376 124.807 67.72C124.807 69.022 124.961 69.33 125.955 69.33H126.949C128.461 69.33 129.119 69.806 129.119 72.046Z" fill="#103778"/>
<path d="M167.76 68.85V72.19C167.76 73.32 167.34 74 166.26 74H163.5V66.99H166.26C167.33 66.99 167.76 67.67 167.76 68.85ZM166.71 72.19V68.85C166.71 67.88 166.48 67.59 165.94 67.59H164.55V73.4H165.94C166.48 73.4 166.71 73 166.71 72.19ZM171.638 74L171.358 72.47H169.488L169.198 74H168.158L169.608 66.99H171.338L172.728 74H171.638ZM170.418 67.59L169.598 71.88H171.258L170.518 67.59H170.418ZM176.317 66.99V67.59H174.877V74H173.827V67.59H172.387V66.99H176.317ZM179.46 74L179.18 72.47H177.31L177.02 74H175.98L177.43 66.99H179.16L180.55 74H179.46ZM178.24 67.59L177.42 71.88H179.08L178.34 67.59H178.24Z" fill="#ADADAD"/>
<path d="M418.47 68.85V72.19C418.47 73 418.7 73.4 419.24 73.4H420.98V74H418.92C417.84 74 417.42 73.32 417.42 72.19V68.85C417.42 67.67 417.85 66.99 418.92 66.99H420.96V67.59H419.24C418.7 67.59 418.47 67.88 418.47 68.85ZM424.779 74L424.499 72.47H422.629L422.339 74H421.299L422.749 66.99H424.479L425.869 74H424.779ZM423.559 67.59L422.739 71.88H424.399L423.659 67.59H423.559ZM429.457 66.99V67.59H428.017V74H426.967V67.59H425.527V66.99H429.457ZM433.589 73.4V74H430.039V66.99H433.589V67.59H431.089V70.13H432.879V70.72H431.089V73.4H433.589ZM438.389 70.18V74H435.669C434.589 74 434.149 73.32 434.149 72.19V68.85C434.149 67.67 434.599 66.99 435.669 66.99H437.709V67.59H435.989C435.449 67.59 435.199 67.88 435.199 68.85V72.19C435.199 73 435.449 73.4 435.989 73.4H437.369V70.78H435.809V70.18H438.389ZM439.227 68.85C439.227 67.67 439.657 66.99 440.727 66.99H442.267C443.337 66.99 443.767 67.67 443.767 68.85V72.19C443.767 73.32 443.347 74 442.267 74H440.727C439.647 74 439.227 73.32 439.227 72.19V68.85ZM442.717 72.19V68.85C442.717 67.88 442.487 67.59 441.947 67.59H441.047C440.507 67.59 440.277 67.88 440.277 68.85V72.19C440.277 73 440.507 73.4 441.047 73.4H441.947C442.487 73.4 442.717 73 442.717 72.19ZM448.898 68.87C448.898 70.21 448.458 70.52 447.998 70.65C448.458 70.81 448.908 71.15 448.908 72.39V74H447.858V72.39C447.858 71.28 447.588 70.95 447.038 70.95H446.168V70.36H447.058C447.568 70.36 447.838 70.03 447.838 68.97C447.838 67.91 447.568 67.59 447.058 67.59H445.738V74H444.688V66.99H447.268C448.448 66.99 448.898 67.53 448.898 68.87ZM450.914 66.99V74H449.864V66.99H450.914ZM454.994 74L454.714 72.47H452.844L452.554 74H451.514L452.964 66.99H454.694L456.084 74H454.994ZM453.774 67.59L452.954 71.88H454.614L453.874 67.59H453.774Z" fill="#ADADAD"/>
<circle cx="1209" cy="70" r="26" fill="url(#paint3_linear_2016_229)"/>
<path d="M1219.73 59.3763C1219.65 59.2073 1219.51 59.0655 1219.35 58.9661C1219.19 58.8668 1219 58.8137 1218.81 58.8125H1209.19C1208.91 58.8125 1208.65 58.9212 1208.46 59.1145C1208.26 59.3079 1208.16 59.5702 1208.16 59.8438C1208.16 60.1173 1208.26 60.3796 1208.46 60.573C1208.65 60.7663 1208.91 60.875 1209.19 60.875H1216.75L1214.21 64.395C1214.05 64.6138 1213.98 64.8874 1214.02 65.1556C1214.06 65.4237 1214.21 65.6645 1214.43 65.825C1214.65 65.9855 1214.92 66.0524 1215.19 66.0112C1215.46 65.9699 1215.7 65.8238 1215.86 65.605L1219.64 60.4488C1219.75 60.2976 1219.82 60.1164 1219.84 59.9265C1219.86 59.7366 1219.82 59.5457 1219.73 59.3763Z" fill="white" stroke="white" stroke-width="0.00064"/>
<path d="M1203.89 59.1151C1203.89 59.1151 1203.89 59.1151 1203.82 59.1151C1203.75 59.0474 1203.66 58.9918 1203.56 58.9501C1203.47 58.9128 1203.36 58.8896 1203.26 58.8813H1198.19C1198 58.8825 1197.81 58.9356 1197.65 59.0349C1197.49 59.1343 1197.35 59.2761 1197.27 59.4451C1197.18 59.6145 1197.14 59.8054 1197.16 59.9953C1197.18 60.1853 1197.25 60.3664 1197.36 60.5176L1204.72 70.5V81.1562C1204.72 81.4288 1204.83 81.6889 1205.02 81.8816C1205.22 82.0742 1205.48 82.1841 1205.75 82.1875H1211.25C1211.52 82.1841 1211.78 82.0742 1211.98 81.8816C1212.17 81.6889 1212.28 81.4288 1212.28 81.1562V70.5L1212.36 70.3762L1217.4 75.3537C1217.49 75.4503 1217.6 75.5266 1217.73 75.5786C1217.86 75.6305 1217.99 75.6569 1218.12 75.6562C1218.26 75.6578 1218.39 75.6316 1218.52 75.5797C1218.65 75.5277 1218.76 75.4508 1218.85 75.3537C1219.05 75.1604 1219.16 74.8983 1219.16 74.625C1219.16 74.3518 1219.05 74.0897 1218.85 73.8962L1203.89 59.1151ZM1210.42 69.5512C1210.29 69.7241 1210.22 69.9372 1210.22 70.1562V80.125H1206.78V70.1562C1206.78 69.9372 1206.71 69.7241 1206.57 69.5512L1200.25 60.8751H1202.75L1210.88 68.9187L1210.42 69.5512Z" fill="white" stroke="white" stroke-width="0.00064"/>
<rect width="50" height="980" fill="url(#paint4_linear_2016_229)"/>
<g filter="url(#filter1_d_2016_229)">
<rect y="209" width="54" height="48" rx="2" fill="url(#paint5_linear_2016_229)" fill-opacity="0.9" shape-rendering="crispEdges"/>
</g>
<rect y="211" width="52" height="44" fill="#103778"/>
<path d="M40.2734 28H45.415V30.0142H42.4707V32.0576H45.2686V34.0352H42.5V36.584H45.4883V38.5908H40.2734V28Z" fill="white"/>
<path d="M37.1387 34.0791V28H39.2334V38.5908H37.0361L34.8682 32.5117V38.5908H32.7881V28H34.9854L37.1387 34.0791Z" fill="white"/>
<path d="M25.4199 28H31.814V38.5908H25.4199V28ZM27.6465 36.584H29.5947V30.0142H27.6465V36.584Z" fill="white"/>
<path d="M22.3657 38.5908L21.0474 34.7603H20.4614V38.5908H18.2422V29.4941L19.8535 28H24.3872V34.731H23.186L24.5923 38.5908H22.3657ZM22.168 32.7754V30.0142H20.4614V32.7754H22.168Z" fill="white"/>
<path d="M22.3657 38.5908L21.0474 34.7603H20.4614V38.5908H18.2422V29.4941L19.8535 28H24.3872V34.731H23.186L24.5923 38.5908H22.3657ZM22.168 32.7754V30.0142H20.4614V32.7754H22.168Z" fill="white"/>
<path d="M17.2534 38.5908H10.9912V28H13.2104V36.584H15.0269V28H17.2534V38.5908Z" fill="white"/>
<path d="M7.21924 34.0352V38.5908H5V29.4648L6.46484 28H10.061V30.0142H7.21924V32.0576H9.84131V34.0352H7.21924Z" fill="white"/>
<g opacity="0.8">
<path d="M19 19.9544L21.9544 16.0907L24.6819 22L26.9548 12L28.3185 15.1819L30.3641 12.6819L31.7278 15.6363" stroke="white" stroke-width="1.472" stroke-linecap="round" stroke-linejoin="round"/>
</g>
<path d="M36.7561 48.1888H35.9395V43H36.7561V48.1888Z" fill="white" fill-opacity="0.8"/>
<path d="M33.0739 43.0072H34.895C35.1239 43.2361 35.3515 43.4649 35.578 43.6938V45.1319C35.5659 45.1439 35.4431 45.2294 35.2094 45.3884C35.4503 45.4631 35.5731 45.5016 35.578 45.504V47.4986C35.3515 47.7299 35.1239 47.9587 34.895 48.1851H33.0739C33.0715 48.1851 33.0703 48.1839 33.0703 48.1815V43.0108C33.0703 43.0084 33.0715 43.0072 33.0739 43.0072ZM33.8833 44.0226V45.4173C34.4494 45.0897 34.7433 44.9211 34.765 44.9115V44.0226C34.6397 43.8973 34.547 43.8058 34.4867 43.748H34.1615L33.8833 44.0226ZM33.8833 46.2376V47.4444H33.9773C34.0857 47.4444 34.2555 47.4444 34.4867 47.4444C34.6722 47.2613 34.765 47.1698 34.765 47.1698V45.7281H34.7614C34.176 46.0653 33.8833 46.2351 33.8833 46.2376Z" fill="white" fill-opacity="0.8"/>
<path d="M28.2717 43.0072H29.4063C29.4087 43.0096 29.5845 43.2385 29.9338 43.6938V43.9467C29.9338 44.1876 29.935 44.5321 29.9374 44.9801C29.3159 45.3511 28.9715 45.5582 28.904 45.6016C29.3545 46.2207 29.5954 46.5495 29.6267 46.588C29.6195 46.4748 29.611 46.258 29.6014 45.9376L29.605 45.934L30.4108 46.2339V46.2412V47.4986L30.8733 48.1851L30.8661 48.1888H30.0314C30.0266 48.1888 29.9808 48.1334 29.8941 48.0225C29.8483 48.0707 29.7929 48.1261 29.7279 48.1888H27.9609C27.8381 48.0707 27.6092 47.8431 27.2744 47.5058V45.6016C27.2889 45.5896 27.4129 45.5221 27.6466 45.3993C27.7189 45.3583 27.7598 45.3354 27.7694 45.3306C27.6562 45.1692 27.5948 45.0789 27.5852 45.0596V43.6938C28.038 43.2361 28.2669 43.0072 28.2717 43.0072ZM28.3982 44.0262V44.8356C28.4945 44.9801 28.5451 45.0536 28.5499 45.056C29.0197 44.7838 29.263 44.6417 29.2798 44.6296V44.0262C29.1859 43.9322 29.0931 43.8407 29.0016 43.7516H28.6764C28.4933 43.9322 28.4006 44.0238 28.3982 44.0262ZM28.0874 46.1689V47.1734L28.3656 47.448H29.3232C29.3256 47.448 29.3473 47.4263 29.3882 47.383V47.3794C28.6969 46.5049 28.3464 46.0605 28.3367 46.046C28.3319 46.046 28.2488 46.087 28.0874 46.1689Z" fill="white" fill-opacity="0.8"/>
<path d="M24.3945 48.1888H23.249L22.5625 47.5022V46.0713L23.3791 46.5555V47.1662L23.6573 47.4444H23.9898L24.2608 47.1662V46.3857L22.5625 45.28V43.6865L23.249 43H24.3908L25.0774 43.6793V44.9367L24.2608 44.4706V44.0153L23.9898 43.7371H23.6573L23.3791 44.0153V44.832L25.0774 45.8762V47.5022L24.3945 48.1888Z" fill="white" fill-opacity="0.8"/>
<path d="M20.3584 48.1888C20.132 47.9575 19.9031 47.7287 19.6719 47.5022L19.6827 43.6865C19.9092 43.4553 20.138 43.2264 20.3692 43H21.5219C21.7869 43.2626 22.0133 43.4914 22.2012 43.6865L22.1976 47.4986L21.5111 48.1815L20.3584 48.1888ZM21.1028 47.448L21.381 47.1734V46.0677L21.3882 44.0153L21.1136 43.7371H20.7703C20.6957 43.8166 20.6053 43.9094 20.4993 44.0153L20.4957 47.1734L20.7667 47.448H21.1028Z" fill="white" fill-opacity="0.8"/>
<path d="M16.7812 48.1888L16.7885 43H18.6277L19.3106 43.6865L19.307 46.6206L19.2997 47.4986L18.6204 48.1815L16.7812 48.1888ZM18.2121 47.448L18.4831 47.1734C18.4879 46.8048 18.4904 46.4363 18.4904 46.0677V44.0153L18.2194 43.7371L17.6051 43.7443L17.5979 47.448H18.2121Z" fill="white" fill-opacity="0.8"/>
<path d="M16.42 48.1888L15.5997 48.1815V46.0244L14.7109 46.4688V48.1815L13.8906 48.1888L13.8979 43.6865L14.5808 43H15.7298L16.4127 43.6865L16.42 48.1888ZM14.7109 45.6486L15.5997 45.2114V44.0153C15.5034 43.9262 15.4106 43.8335 15.3215 43.7371H14.9891C14.9 43.8335 14.8072 43.9262 14.7109 44.0153V45.6486Z" fill="white" fill-opacity="0.8"/>
<path d="M11 48.1888L11.0072 43H12.8464L13.5293 43.6865L13.5257 46.6206L13.5185 47.4986L12.8392 48.1815L11 48.1888ZM12.4309 47.448L12.7019 47.1734C12.7067 46.8048 12.7091 46.4363 12.7091 46.0677V44.0153L12.4381 43.7371L11.8238 43.7443L11.8166 47.448H12.4309Z" fill="white" fill-opacity="0.8"/>
<g clip-path="url(#clip1_2016_229)">
<path d="M16.9913 112.254C16.9913 112.254 16.9718 112.746 17.4522 112.746C18.0498 112.746 22.9978 112.74 22.9978 112.74L23.0059 108.195C23.0059 108.195 22.9277 107.446 23.6548 107.446H25.9558C26.8156 107.446 26.7627 108.195 26.7627 108.195L26.7529 112.725C26.7529 112.725 31.4444 112.725 32.1813 112.725C32.7911 112.725 32.7634 112.113 32.7634 112.113V103.735L25.1131 96.9301L16.9913 103.735V112.254Z" fill="white" fill-opacity="0.3"/>
<path d="M14 103.102C14 103.102 14.6896 104.373 16.1935 103.102L25.1808 95.4987L33.607 103.055C35.3478 104.31 36 103.055 36 103.055L25.1808 93.2539L14 103.102Z" fill="white" fill-opacity="0.3"/>
<path d="M33.4028 95.4807H31.2354L31.2443 98.109L33.4028 99.9402V95.4807Z" fill="white" fill-opacity="0.3"/>
</g>
<path d="M25.5 149.417L21.6667 149.417M34.125 147.5V146.733C34.125 145.66 34.125 145.123 33.9161 144.713C33.7324 144.353 33.4391 144.059 33.0785 143.876C32.6685 143.667 32.1318 143.667 31.0583 143.667H16.875M34.125 147.5V151.333M34.125 147.5H32.2083C31.1498 147.5 30.2917 148.358 30.2917 149.417C30.2917 150.475 31.1498 151.333 32.2083 151.333H34.125M16.875 143.667V152.1C16.875 153.173 16.875 153.71 17.0839 154.12C17.2677 154.481 17.5609 154.774 17.9215 154.958C18.3315 155.167 18.8682 155.167 19.9417 155.167H31.0583C32.1318 155.167 32.6685 155.167 33.0785 154.958C33.4391 154.774 33.7324 154.481 33.9161 154.12C34.125 153.71 34.125 153.173 34.125 152.1V151.333M16.875 143.667V142.9C16.875 141.827 16.875 141.29 17.0839 140.88C17.2677 140.519 17.5609 140.226 17.9215 140.042C18.3315 139.833 18.8682 139.833 19.9417 139.833H28.1833C29.2568 139.833 29.7935 139.833 30.2035 140.042C30.5641 140.226 30.8574 140.519 31.0411 140.88C31.25 141.29 31.25 141.827 31.25 142.9V143.667" stroke="white" stroke-opacity="0.3" stroke-width="1.6" stroke-linecap="round" stroke-linejoin="round"/>
<path d="M23.5833 192.333V190.417M23.5833 190.417V188.5M23.5833 190.417L25.5 190.417M23.5833 190.417L21.6667 190.417M34.125 188.5V187.733C34.125 186.66 34.125 186.123 33.9161 185.713C33.7324 185.353 33.4391 185.059 33.0785 184.876C32.6685 184.667 32.1318 184.667 31.0583 184.667H16.875M34.125 188.5V192.333M34.125 188.5H32.2083C31.1498 188.5 30.2917 189.358 30.2917 190.417C30.2917 191.475 31.1498 192.333 32.2083 192.333H34.125M16.875 184.667V193.1C16.875 194.173 16.875 194.71 17.0839 195.12C17.2677 195.481 17.5609 195.774 17.9215 195.958C18.3315 196.167 18.8682 196.167 19.9417 196.167H31.0583C32.1318 196.167 32.6685 196.167 33.0785 195.958C33.4391 195.774 33.7324 195.481 33.9161 195.12C34.125 194.71 34.125 194.173 34.125 193.1V192.333M16.875 184.667V183.9C16.875 182.827 16.875 182.29 17.0839 181.88C17.2677 181.519 17.5609 181.226 17.9215 181.042C18.3315 180.833 18.8682 180.833 19.9417 180.833H28.1833C29.2568 180.833 29.7935 180.833 30.2035 181.042C30.5641 181.226 30.8574 181.519 31.0411 181.88C31.25 182.29 31.25 182.827 31.25 183.9V184.667" stroke="white" stroke-opacity="0.3" stroke-width="1.6" stroke-linecap="round" stroke-linejoin="round"/>
<rect x="82" y="108.525" width="580.714" height="295.96" rx="2" fill="url(#paint6_linear_2016_229)"/>
<rect x="1248" y="406" width="585.286" height="300" rx="2" transform="rotate(180 1248 406)" fill="url(#paint7_linear_2016_229)"/>
<rect x="84" y="108" width="1162" height="295" fill="#F8F8F8"/>
<path d="M101.52 127.7V134.38C101.52 136.64 100.68 138 98.52 138H93V123.98H98.52C100.66 123.98 101.52 125.34 101.52 127.7ZM99.42 134.38V127.7C99.42 125.76 98.96 125.18 97.88 125.18H95.1V136.8H97.88C98.96 136.8 99.42 136 99.42 134.38ZM110.452 136.8V138H103.352V123.98H110.452V125.18H105.452V130.26H109.032V131.44H105.452V136.8H110.452ZM119.486 133.78C119.486 136.66 118.586 138 116.226 138H111.746V136.8H115.826C116.966 136.8 117.546 136.36 117.546 134.08C117.546 132.08 117.226 131.72 115.626 131.72H114.106C112.086 131.72 111.386 130.74 111.386 127.88C111.386 125.42 112.206 123.98 114.466 123.98H118.366V125.18H114.966C113.866 125.18 113.326 125.68 113.326 127.6C113.326 129.46 113.546 129.9 114.966 129.9H116.386C118.546 129.9 119.486 130.58 119.486 133.78ZM129.467 128.26C129.467 131.8 128.807 132.4 126.127 132.4H123.947V131.22H125.887C127.087 131.22 127.407 130.74 127.407 128.22C127.407 125.7 127.087 125.18 125.887 125.18H123.127V138H121.027V123.98H126.127C128.807 123.98 129.467 124.72 129.467 128.26ZM137.854 136.8V138H130.754V123.98H137.854V125.18H132.854V130.26H136.434V131.44H132.854V136.8H137.854ZM146.888 133.78C146.888 136.66 145.988 138 143.628 138H139.148V136.8H143.228C144.368 136.8 144.948 136.36 144.948 134.08C144.948 132.08 144.628 131.72 143.028 131.72H141.508C139.488 131.72 138.788 130.74 138.788 127.88C138.788 125.42 139.608 123.98 141.868 123.98H145.768V125.18H142.368C141.268 125.18 140.728 125.68 140.728 127.6C140.728 129.46 140.948 129.9 142.368 129.9H143.788C145.948 129.9 146.888 130.58 146.888 133.78ZM154.354 138L153.794 134.94H150.054L149.474 138H147.394L150.294 123.98H153.754L156.534 138H154.354ZM151.914 125.18L150.274 133.76H153.594L152.114 125.18H151.914ZM165.248 133.78C165.248 136.66 164.348 138 161.988 138H157.508V136.8H161.588C162.728 136.8 163.308 136.36 163.308 134.08C163.308 132.08 162.988 131.72 161.388 131.72H159.868C157.848 131.72 157.148 130.74 157.148 127.88C157.148 125.42 157.968 123.98 160.228 123.98H164.128V125.18H160.728C159.627 125.18 159.088 125.68 159.088 127.6C159.088 129.46 159.308 129.9 160.728 129.9H162.148C164.308 129.9 165.248 130.58 165.248 133.78ZM180.036 127.7V134.38C180.036 136.64 179.196 138 177.036 138H171.516V123.98H177.036C179.176 123.98 180.036 125.34 180.036 127.7ZM177.936 134.38V127.7C177.936 125.76 177.476 125.18 176.396 125.18H173.616V136.8H176.396C177.476 136.8 177.936 136 177.936 134.38ZM184.007 123.98V138H181.907V123.98H184.007ZM189.667 136.8L192.007 123.98H194.107L191.247 138H187.947L185.207 123.98H187.407L189.547 136.8H189.667ZM197.406 123.98V138H195.306V123.98H197.406ZM207.965 127.7V134.38C207.965 136.64 207.125 138 204.965 138H199.445V123.98H204.965C207.105 123.98 207.965 125.34 207.965 127.7ZM205.865 134.38V127.7C205.865 125.76 205.405 125.18 204.325 125.18H201.545V136.8H204.325C205.405 136.8 205.865 136 205.865 134.38ZM211.937 123.98V138H209.837V123.98H211.937ZM222.497 127.7V134.38C222.497 136.64 221.657 138 219.497 138H213.977V123.98H219.497C221.637 123.98 222.497 125.34 222.497 127.7ZM220.397 134.38V127.7C220.397 125.76 219.937 125.18 218.857 125.18H216.077V136.8H218.857C219.937 136.8 220.397 136 220.397 134.38ZM230.253 138L229.693 134.94H225.953L225.373 138H223.293L226.193 123.98H229.653L232.433 138H230.253ZM227.813 125.18L226.173 133.76H229.493L228.013 125.18H227.813ZM241.146 133.78C241.146 136.66 240.246 138 237.886 138H233.406V136.8H237.486C238.626 136.8 239.206 136.36 239.206 134.08C239.206 132.08 238.886 131.72 237.286 131.72H235.766C233.746 131.72 233.046 130.74 233.046 127.88C233.046 125.42 233.866 123.98 236.126 123.98H240.026V125.18H236.626C235.526 125.18 234.986 125.68 234.986 127.6C234.986 129.46 235.206 129.9 236.626 129.9H238.046C240.206 129.9 241.146 130.58 241.146 133.78ZM255.854 128.26C255.854 131.8 255.194 132.4 252.514 132.4H250.334V131.22H252.274C253.474 131.22 253.794 130.74 253.794 128.22C253.794 125.7 253.474 125.18 252.274 125.18H249.514V138H247.414V123.98H252.514C255.194 123.98 255.854 124.72 255.854 128.26ZM264.241 136.8V138H257.141V123.98H264.241V125.18H259.241V130.26H262.821V131.44H259.241V136.8H264.241ZM271.935 136.8V138H265.715V123.98H267.815V136.8H271.935ZM272.703 127.7C272.703 125.34 273.563 123.98 275.703 123.98H278.783C280.923 123.98 281.783 125.34 281.783 127.7V134.38C281.783 136.64 280.943 138 278.783 138H275.703C273.543 138 272.703 136.64 272.703 134.38V127.7ZM279.683 134.38V127.7C279.683 125.76 279.223 125.18 278.143 125.18H276.343C275.263 125.18 274.803 125.76 274.803 127.7V134.38C274.803 136 275.263 136.8 276.343 136.8H278.143C279.223 136.8 279.683 136 279.683 134.38ZM291.185 133.78C291.185 136.66 290.285 138 287.925 138H283.445V136.8H287.525C288.665 136.8 289.245 136.36 289.245 134.08C289.245 132.08 288.925 131.72 287.325 131.72H285.805C283.785 131.72 283.085 130.74 283.085 127.88C283.085 125.42 283.905 123.98 286.165 123.98H290.065V125.18H286.665C285.565 125.18 285.025 125.68 285.025 127.6C285.025 129.46 285.245 129.9 286.665 129.9H288.085C290.245 129.9 291.185 130.58 291.185 133.78ZM305.973 134.18C305.973 136.68 304.973 138 302.653 138H297.453V123.98H302.633C304.893 123.98 305.753 125.32 305.753 127.66C305.753 129.82 305.093 130.44 304.253 130.84C305.193 131.16 305.973 132.06 305.973 134.18ZM303.853 134.22C303.853 132.22 303.473 131.44 302.313 131.44H300.413V130.26H302.313C303.473 130.26 303.693 129.58 303.693 127.84C303.693 125.88 303.073 125.18 302.153 125.18H299.553V136.8H302.153C303.153 136.8 303.853 136.14 303.853 134.22ZM313.378 138L312.818 134.94H309.078L308.498 138H306.418L309.318 123.98H312.778L315.558 138H313.378ZM310.938 125.18L309.298 133.76H312.618L311.138 125.18H310.938ZM325.251 123.98V138H323.431L318.311 126.6V138H316.671V123.98H319.271L323.591 133.96V123.98H325.251ZM329.178 127.7V134.38C329.178 136 329.638 136.8 330.718 136.8H334.198V138H330.078C327.918 138 327.078 136.64 327.078 134.38V127.7C327.078 125.34 327.938 123.98 330.078 123.98H334.158V125.18H330.718C329.638 125.18 329.178 125.76 329.178 127.7ZM335.516 127.7C335.516 125.34 336.376 123.98 338.516 123.98H341.596C343.736 123.98 344.596 125.34 344.596 127.7V134.38C344.596 136.64 343.756 138 341.596 138H338.516C336.356 138 335.516 136.64 335.516 134.38V127.7ZM342.496 134.38V127.7C342.496 125.76 342.036 125.18 340.956 125.18H339.156C338.076 125.18 337.616 125.76 337.616 127.7V134.38C337.616 136 338.076 136.8 339.156 136.8H340.956C342.036 136.8 342.496 136 342.496 134.38ZM353.998 133.78C353.998 136.66 353.098 138 350.738 138H346.258V136.8H350.338C351.478 136.8 352.058 136.36 352.058 134.08C352.058 132.08 351.738 131.72 350.138 131.72H348.618C346.598 131.72 345.898 130.74 345.898 127.88C345.898 125.42 346.718 123.98 348.978 123.98H352.878V125.18H349.478C348.377 125.18 347.838 125.68 347.838 127.6C347.838 129.46 348.058 129.9 349.478 129.9H350.898C353.058 129.9 353.998 130.58 353.998 133.78Z" fill="#103778"/>
<path d="M99.12 451L98.56 447.94H94.82L94.24 451H92.16L95.06 436.98H98.52L101.3 451H99.12ZM96.68 438.18L95.04 446.76H98.36L96.88 438.18H96.68ZM104.198 440.7V447.38C104.198 449 104.658 449.8 105.738 449.8H109.218V451H105.098C102.938 451 102.098 449.64 102.098 447.38V440.7C102.098 438.34 102.958 436.98 105.098 436.98H109.178V438.18H105.738C104.658 438.18 104.198 438.76 104.198 440.7ZM117.795 449.8V451H110.695V436.98H117.795V438.18H112.795V443.26H116.375V444.44H112.795V449.8H117.795ZM127.69 440.74C127.69 443.42 126.81 444.04 125.89 444.3C126.81 444.62 127.71 445.3 127.71 447.78V451H125.61V447.78C125.61 445.56 125.07 444.9 123.97 444.9H122.23V443.72H124.01C125.03 443.72 125.57 443.06 125.57 440.94C125.57 438.82 125.03 438.18 124.01 438.18H121.37V451H119.27V436.98H124.43C126.79 436.98 127.69 438.06 127.69 440.74ZM136.211 436.98V438.18H133.331V451H131.231V438.18H128.351V436.98H136.211ZM136.922 440.7C136.922 438.34 137.782 436.98 139.922 436.98H143.002C145.142 436.98 146.002 438.34 146.002 440.7V447.38C146.002 449.64 145.162 451 143.002 451H139.922C137.762 451 136.922 449.64 136.922 447.38V440.7ZM143.902 447.38V440.7C143.902 438.76 143.442 438.18 142.362 438.18H140.562C139.482 438.18 139.022 438.76 139.022 440.7V447.38C139.022 449 139.482 449.8 140.562 449.8H142.362C143.442 449.8 143.902 449 143.902 447.38ZM161.09 440.7V447.38C161.09 449.64 160.25 451 158.09 451H152.57V436.98H158.09C160.23 436.98 161.09 438.34 161.09 440.7ZM158.99 447.38V440.7C158.99 438.76 158.53 438.18 157.45 438.18H154.67V449.8H157.45C158.53 449.8 158.99 449 158.99 447.38ZM170.022 449.8V451H162.922V436.98H170.022V438.18H165.022V443.26H168.602V444.44H165.022V449.8H170.022ZM178.163 440.7V447.38C178.163 449 178.623 449.8 179.703 449.8H183.183V451H179.063C176.903 451 176.063 449.64 176.063 447.38V440.7C176.063 438.34 176.923 436.98 179.063 436.98H183.143V438.18H179.703C178.623 438.18 178.163 438.76 178.163 440.7ZM184.5 440.7C184.5 438.34 185.36 436.98 187.5 436.98H190.58C192.72 436.98 193.58 438.34 193.58 440.7V447.38C193.58 449.64 192.74 451 190.58 451H187.5C185.34 451 184.5 449.64 184.5 447.38V440.7ZM191.48 447.38V440.7C191.48 438.76 191.02 438.18 189.94 438.18H188.14C187.06 438.18 186.6 438.76 186.6 440.7V447.38C186.6 449 187.06 449.8 188.14 449.8H189.94C191.02 449.8 191.48 449 191.48 447.38ZM203.962 436.98V451H202.142L197.022 439.6V451H195.382V436.98H197.982L202.302 446.96V436.98H203.962ZM212.969 436.98V438.18H210.089V451H207.989V438.18H205.109V436.98H212.969ZM219.257 451L218.697 447.94H214.957L214.377 451H212.297L215.197 436.98H218.657L221.437 451H219.257ZM216.817 438.18L215.177 446.76H218.497L217.017 438.18H216.817ZM230.15 446.78C230.15 449.66 229.25 451 226.89 451H222.41V449.8H226.49C227.63 449.8 228.21 449.36 228.21 447.08C228.21 445.08 227.89 444.72 226.29 444.72H224.77C222.75 444.72 222.05 443.74 222.05 440.88C222.05 438.42 222.87 436.98 225.13 436.98H229.03V438.18H225.63C224.53 438.18 223.99 438.68 223.99 440.6C223.99 442.46 224.21 442.9 225.63 442.9H227.05C229.21 442.9 230.15 443.58 230.15 446.78Z" fill="#103778"/>
<path d="M22 237H21V235.23C21.2356 235.018 21.4332 234.771 21.5901 234.5H22C22.8271 234.5 23.5 233.827 23.5 233C23.5 232.344 23.0899 231.801 22.5 231.591V230C22.5 228.343 21.1569 227 19.5 227H18.5C16.8431 227 15.5 228.343 15.5 230V231.592C14.9193 231.799 14.5 232.349 14.5 233C14.5 233.844 15.1873 234.5 16 234.5H16.4098C16.5667 234.771 16.7644 235.018 17 235.23V237H16C14.895 237 14 237.895 14 239V243C14 243.55 14.45 244 15 244H16V242C16 241.725 16.225 241.5 16.5 241.5C16.775 241.5 17 241.725 17 242V244H21V242C21 241.725 21.225 241.5 21.5 241.5C21.775 241.5 22 241.725 22 242V244H23C23.55 244 24 243.55 24 243V239C24 237.895 23.105 237 22 237ZM17 233V232C17 230.985 17.7593 230.145 18.7466 230.016C18.9561 230.477 19.2929 230.876 19.7202 231.164C20.0933 231.416 20.5171 231.569 20.9624 231.613C20.9878 231.739 21 231.867 21 232V233C21 233.625 20.7007 234.223 20.1978 234.602C18.9405 235.556 17 234.691 17 233ZM19.9782 235.837C19.9853 235.834 19.9929 235.833 20 235.831V236.891C19.5853 237.703 18.4141 237.701 18 236.891V235.831C18.0073 235.834 18.0152 235.834 18.0225 235.837C18.6866 236.065 19.403 236.034 19.9782 235.837ZM22 233.5H21.9523C22.0145 233.138 22 232.904 22 232.5C22.6579 232.5 22.6607 233.5 22 233.5ZM16 233.5C15.3421 233.5 15.3393 232.5 16 232.5C16 232.905 15.9854 233.137 16.0477 233.5H16ZM35 237H34V235.23C34.0808 235.158 34.1568 235.081 34.2288 235H35.5C36.0523 235 36.5 234.552 36.5 234V231.5C36.5 229.015 34.4853 227 32 227C29.5147 227 27.5 229.015 27.5 231.5V234C27.5 234.552 27.9478 235 28.5 235H29.7711C29.8431 235.081 29.9191 235.157 30 235.23V237H29C27.895 237 27 237.895 27 239V243C27 243.55 27.45 244 28 244H29V242C29 241.725 29.225 241.5 29.5 241.5C29.775 241.5 30 241.725 30 242V244H34V242C34 241.725 34.225 241.5 34.5 241.5C34.775 241.5 35 241.725 35 242V244H36C36.55 244 37 243.55 37 243V239C37 237.895 36.105 237 35 237ZM31.3696 234.895C30.5457 234.63 30 233.844 30 233V232C30 230.985 30.7593 230.145 31.7466 230.016C31.9561 230.477 32.293 230.876 32.7202 231.164C33.0933 231.416 33.5171 231.569 33.9624 231.613C33.9878 231.739 34 231.867 34 232V233C34 233.625 33.7007 234.223 33.1978 234.602C32.6829 234.993 31.979 235.09 31.3696 234.895ZM31 235.831C31.0073 235.834 31.0152 235.834 31.0225 235.837C31.5952 236.033 32.3181 236.063 32.9783 235.837C32.9853 235.834 32.993 235.833 33.0001 235.831V236.854C32.8214 237.142 32.3921 237.877 32.0001 238.874C31.608 237.877 31.1788 237.142 31.0001 236.854V235.831H31ZM28.3801 224.6L26.3488 226.653C25.8914 227.116 25.1486 227.116 24.6912 226.653L22.6599 224.6C21.9193 223.851 21.7919 222.648 22.4341 221.812C23.21 220.802 24.6546 220.734 25.52 221.609C26.3854 220.734 27.8301 220.802 28.606 221.812C29.2481 222.648 29.1206 223.851 28.3801 224.6Z" fill="white" stroke="black" stroke-width="0.00064"/>
</g>
<defs>
<filter id="filter0_d_2016_229" x="78" y="48" width="1174" height="48" filterUnits="userSpaceOnUse" color-interpolation-filters="sRGB">
<feFlood flood-opacity="0" result="BackgroundImageFix"/>
<feColorMatrix in="SourceAlpha" type="matrix" values="0 0 0 0 0 0 0 0 0 0 0 0 0 0 0 0 0 0 127 0" result="hardAlpha"/>
<feOffset dy="2"/>
<feGaussianBlur stdDeviation="2"/>
<feComposite in2="hardAlpha" operator="out"/>
<feColorMatrix type="matrix" values="0 0 0 0 0 0 0 0 0 0 0 0 0 0 0 0 0 0 0.1 0"/>
<feBlend mode="normal" in2="BackgroundImageFix" result="effect1_dropShadow_2016_229"/>
<feBlend mode="normal" in="SourceGraphic" in2="effect1_dropShadow_2016_229" result="shape"/>
</filter>
<filter id="filter1_d_2016_229" x="-2" y="207" width="62" height="56" filterUnits="userSpaceOnUse" color-interpolation-filters="sRGB">
<feFlood flood-opacity="0" result="BackgroundImageFix"/>
<feColorMatrix in="SourceAlpha" type="matrix" values="0 0 0 0 0 0 0 0 0 0 0 0 0 0 0 0 0 0 127 0" result="hardAlpha"/>
<feOffset dx="2" dy="2"/>
<feGaussianBlur stdDeviation="2"/>
<feComposite in2="hardAlpha" operator="out"/>
<feColorMatrix type="matrix" values="0 0 0 0 0 0 0 0 0 0 0 0 0 0 0 0 0 0 0.25 0"/>
<feBlend mode="normal" in2="BackgroundImageFix" result="effect1_dropShadow_2016_229"/>
<feBlend mode="normal" in="SourceGraphic" in2="effect1_dropShadow_2016_229" result="shape"/>
</filter>
<linearGradient id="paint0_linear_2016_229" x1="85.998" y1="940.369" x2="609.456" y2="515.247" gradientUnits="userSpaceOnUse">
<stop stop-color="#103778"/>
<stop offset="0.045" stop-color="#1758C5"/>
<stop offset="0.475" stop-color="#1758C5" stop-opacity="0"/>
</linearGradient>
<linearGradient id="paint1_linear_2016_229" x1="1252.03" y1="1464" x2="1782" y2="1036.04" gradientUnits="userSpaceOnUse">
<stop stop-color="#103778"/>
<stop offset="0.045" stop-color="#1758C5"/>
<stop offset="0.475" stop-color="#1758C5" stop-opacity="0"/>
</linearGradient>
<linearGradient id="paint2_linear_2016_229" x1="666.839" y1="70" x2="669.762" y2="122.308" gradientUnits="userSpaceOnUse">
<stop stop-color="#FAFAFA"/>
<stop offset="1" stop-color="#F2F2F2"/>
</linearGradient>
<linearGradient id="paint3_linear_2016_229" x1="1209" y1="44" x2="1209" y2="96" gradientUnits="userSpaceOnUse">
<stop stop-color="#103778"/>
<stop offset="1" stop-color="#1549A0"/>
</linearGradient>
<linearGradient id="paint4_linear_2016_229" x1="25" y1="0" x2="25" y2="980" gradientUnits="userSpaceOnUse">
<stop stop-color="#103778"/>
<stop offset="1" stop-color="#1549A0"/>
</linearGradient>
<linearGradient id="paint5_linear_2016_229" x1="5.4" y1="235.5" x2="53.9768" y2="234.439" gradientUnits="userSpaceOnUse">
<stop stop-color="#103778" stop-opacity="0"/>
<stop offset="0.59" stop-color="#7D1E11"/>
<stop offset="1" stop-color="#E3371E"/>
</linearGradient>
<linearGradient id="paint6_linear_2016_229" x1="85.998" y1="404.485" x2="376.609" y2="-5.39785" gradientUnits="userSpaceOnUse">
<stop stop-color="#103778"/>
<stop offset="0.045" stop-color="#1758C5"/>
<stop offset="0.475" stop-color="#1758C5" stop-opacity="0"/>
</linearGradient>
<linearGradient id="paint7_linear_2016_229" x1="1252.03" y1="706" x2="1547.16" y2="292.114" gradientUnits="userSpaceOnUse">
<stop stop-color="#103778"/>
<stop offset="0.045" stop-color="#1758C5"/>
<stop offset="0.475" stop-color="#1758C5" stop-opacity="0"/>
</linearGradient>
<clipPath id="clip0_2016_229">
<rect width="1280" height="980" fill="white"/>
</clipPath>
<clipPath id="clip1_2016_229">
<rect width="22" height="22" fill="white" transform="translate(14 92)"/>
</clipPath>
</defs>
</svg>
