<svg width="1280" height="720" viewBox="0 0 1280 720" fill="none" xmlns="http://www.w3.org/2000/svg">
<g clip-path="url(#clip0_2004_174)">
<rect width="1280" height="720" fill="white"/>
<rect width="50" height="720" fill="url(#paint0_linear_2004_174)"/>
<g filter="url(#filter0_d_2004_174)">
<rect y="79" width="54" height="48" rx="2" fill="url(#paint1_linear_2004_174)" fill-opacity="0.9" shape-rendering="crispEdges"/>
</g>
<rect y="81" width="52" height="44" fill="#103778"/>
<path d="M88.468 40.32L91.744 22.372H94.684L90.68 42H86.06L82.224 22.372H85.304L88.3 40.32H88.468ZM99.3023 22.372V42H96.3623V22.372H99.3023ZM112.742 36.092C112.742 40.124 111.482 42 108.178 42H101.906V40.32H107.618C109.214 40.32 110.026 39.704 110.026 36.512C110.026 33.712 109.578 33.208 107.338 33.208H105.21C102.382 33.208 101.402 31.836 101.402 27.832C101.402 24.388 102.55 22.372 105.714 22.372H111.174V24.052H106.414C104.874 24.052 104.118 24.752 104.118 27.44C104.118 30.044 104.426 30.66 106.414 30.66H108.402C111.426 30.66 112.742 31.612 112.742 36.092ZM123.195 42L122.411 37.716H117.175L116.363 42H113.451L117.511 22.372H122.355L126.247 42H123.195ZM119.779 24.052L117.483 36.064H122.131L120.059 24.052H119.779ZM119.527 19.712C118.939 19.516 118.351 19.32 117.651 19.32C116.867 19.32 116.363 19.46 115.747 19.964V18.312C116.307 17.836 117.035 17.668 117.791 17.668C118.603 17.668 119.303 17.948 120.171 18.284C120.759 18.48 121.347 18.676 122.047 18.676C122.831 18.676 123.335 18.536 123.951 18.032V19.684C123.391 20.16 122.663 20.328 121.907 20.328C121.095 20.328 120.395 20.048 119.527 19.712ZM127.364 27.58C127.364 24.276 128.568 22.372 131.564 22.372H135.876C138.872 22.372 140.076 24.276 140.076 27.58V36.932C140.076 40.096 138.9 42 135.876 42H131.564C128.54 42 127.364 40.096 127.364 36.932V27.58ZM137.136 36.932V27.58C137.136 24.864 136.492 24.052 134.98 24.052H132.46C130.948 24.052 130.303 24.864 130.303 27.58V36.932C130.303 39.2 130.948 40.32 132.46 40.32H134.98C136.492 40.32 137.136 39.2 137.136 36.932ZM160.919 31.304V42H153.303C150.279 42 149.047 40.096 149.047 36.932V27.58C149.047 24.276 150.307 22.372 153.303 22.372H159.015V24.052H154.199C152.687 24.052 151.987 24.864 151.987 27.58V36.932C151.987 39.2 152.687 40.32 154.199 40.32H158.063V32.984H153.695V31.304H160.919ZM173.43 40.32V42H163.49V22.372H173.43V24.052H166.43V31.164H171.442V32.816H166.43V40.32H173.43ZM187.282 27.636C187.282 31.388 186.05 32.256 184.762 32.62C186.05 33.068 187.31 34.02 187.31 37.492V42H184.37V37.492C184.37 34.384 183.614 33.46 182.074 33.46H179.638V31.808H182.13C183.558 31.808 184.314 30.884 184.314 27.916C184.314 24.948 183.558 24.052 182.13 24.052H178.434V42H175.494V22.372H182.718C186.022 22.372 187.282 23.884 187.282 27.636ZM198.499 42L197.715 37.716H192.479L191.667 42H188.755L192.815 22.372H197.659L201.551 42H198.499ZM195.083 24.052L192.787 36.064H197.435L195.363 24.052H195.083ZM211.874 40.32V42H203.166V22.372H206.106V40.32H211.874Z" fill="#103778"/>
<path d="M40.2734 28H45.415V30.0142H42.4707V32.0576H45.2686V34.0352H42.5V36.584H45.4883V38.5908H40.2734V28Z" fill="white"/>
<path d="M37.1387 34.0791V28H39.2334V38.5908H37.0361L34.8682 32.5117V38.5908H32.7881V28H34.9854L37.1387 34.0791Z" fill="white"/>
<path d="M25.4199 28H31.814V38.5908H25.4199V28ZM27.6465 36.584H29.5947V30.0142H27.6465V36.584Z" fill="white"/>
<path d="M22.3657 38.5908L21.0474 34.7603H20.4614V38.5908H18.2422V29.4941L19.8535 28H24.3872V34.731H23.186L24.5923 38.5908H22.3657ZM22.168 32.7754V30.0142H20.4614V32.7754H22.168Z" fill="white"/>
<path d="M22.3657 38.5908L21.0474 34.7603H20.4614V38.5908H18.2422V29.4941L19.8535 28H24.3872V34.731H23.186L24.5923 38.5908H22.3657ZM22.168 32.7754V30.0142H20.4614V32.7754H22.168Z" fill="white"/>
<path d="M17.2534 38.5908H10.9912V28H13.2104V36.584H15.0269V28H17.2534V38.5908Z" fill="white"/>
<path d="M7.21924 34.0352V38.5908H5V29.4648L6.46484 28H10.061V30.0142H7.21924V32.0576H9.84131V34.0352H7.21924Z" fill="white"/>
<g opacity="0.8">
<path d="M19 19.9544L21.9544 16.0907L24.6819 22L26.9548 12L28.3185 15.1819L30.3641 12.6819L31.7278 15.6363" stroke="white" stroke-width="1.472" stroke-linecap="round" stroke-linejoin="round"/>
</g>
<path d="M36.7558 48.1888H35.9392V43H36.7558V48.1888Z" fill="white" fill-opacity="0.8"/>
<path d="M33.0739 43.0072H34.895C35.1239 43.2361 35.3515 43.4649 35.578 43.6938V45.1319C35.5659 45.1439 35.4431 45.2294 35.2094 45.3884C35.4503 45.4631 35.5731 45.5016 35.578 45.504V47.4986C35.3515 47.7299 35.1239 47.9587 34.895 48.1851H33.0739C33.0715 48.1851 33.0703 48.1839 33.0703 48.1815V43.0108C33.0703 43.0084 33.0715 43.0072 33.0739 43.0072ZM33.8833 44.0226V45.4173C34.4494 45.0897 34.7433 44.9211 34.765 44.9115V44.0226C34.6397 43.8973 34.547 43.8058 34.4867 43.748H34.1615L33.8833 44.0226ZM33.8833 46.2376V47.4444H33.9773C34.0857 47.4444 34.2555 47.4444 34.4867 47.4444C34.6722 47.2613 34.765 47.1698 34.765 47.1698V45.7281H34.7614C34.176 46.0653 33.8833 46.2351 33.8833 46.2376Z" fill="white" fill-opacity="0.8"/>
<path d="M28.2717 43.0072H29.4063C29.4087 43.0096 29.5845 43.2385 29.9338 43.6938V43.9467C29.9338 44.1876 29.935 44.5321 29.9374 44.9801C29.3159 45.3511 28.9715 45.5582 28.904 45.6016C29.3545 46.2207 29.5954 46.5495 29.6267 46.588C29.6195 46.4748 29.611 46.258 29.6014 45.9376L29.605 45.934L30.4108 46.2339V46.2412V47.4986L30.8733 48.1851L30.8661 48.1888H30.0314C30.0266 48.1888 29.9808 48.1334 29.8941 48.0225C29.8483 48.0707 29.7929 48.1261 29.7279 48.1888H27.9609C27.8381 48.0707 27.6092 47.8431 27.2744 47.5058V45.6016C27.2889 45.5896 27.4129 45.5221 27.6466 45.3993C27.7189 45.3583 27.7598 45.3354 27.7694 45.3306C27.6562 45.1692 27.5948 45.0789 27.5852 45.0596V43.6938C28.038 43.2361 28.2669 43.0072 28.2717 43.0072ZM28.3982 44.0262V44.8356C28.4945 44.9801 28.5451 45.0536 28.5499 45.056C29.0197 44.7838 29.263 44.6417 29.2798 44.6296V44.0262C29.1859 43.9322 29.0931 43.8407 29.0016 43.7516H28.6764C28.4933 43.9322 28.4006 44.0238 28.3982 44.0262ZM28.0874 46.1689V47.1734L28.3656 47.448H29.3232C29.3256 47.448 29.3473 47.4263 29.3882 47.383V47.3794C28.6969 46.5049 28.3464 46.0605 28.3367 46.046C28.3319 46.046 28.2488 46.087 28.0874 46.1689Z" fill="white" fill-opacity="0.8"/>
<path d="M24.3947 48.1888H23.2493L22.5627 47.5022V46.0713L23.3794 46.5555V47.1662L23.6576 47.4444H23.99L24.261 47.1662V46.3857L22.5627 45.28V43.6865L23.2493 43H24.3911L25.0776 43.6793V44.9367L24.261 44.4706V44.0153L23.99 43.7371H23.6576L23.3794 44.0153V44.832L25.0776 45.8762V47.5022L24.3947 48.1888Z" fill="white" fill-opacity="0.8"/>
<path d="M20.3587 48.1888C20.1322 47.9575 19.9034 47.7287 19.6721 47.5022L19.683 43.6865C19.9094 43.4553 20.1382 43.2264 20.3695 43H21.5221C21.7871 43.2626 22.0136 43.4914 22.2015 43.6865L22.1978 47.4986L21.5113 48.1815L20.3587 48.1888ZM21.103 47.448L21.3812 47.1734V46.0677L21.3885 44.0153L21.1138 43.7371H20.7706C20.6959 43.8166 20.6056 43.9094 20.4996 44.0153L20.496 47.1734L20.767 47.448H21.103Z" fill="white" fill-opacity="0.8"/>
<path d="M16.7812 48.1888L16.7885 43H18.6277L19.3106 43.6865L19.307 46.6206L19.2997 47.4986L18.6204 48.1815L16.7812 48.1888ZM18.2121 47.448L18.4831 47.1734C18.4879 46.8048 18.4904 46.4363 18.4904 46.0677V44.0153L18.2194 43.7371L17.6051 43.7443L17.5979 47.448H18.2121Z" fill="white" fill-opacity="0.8"/>
<path d="M16.42 48.1888L15.5997 48.1815V46.0244L14.7109 46.4688V48.1815L13.8906 48.1888L13.8979 43.6865L14.5808 43H15.7298L16.4127 43.6865L16.42 48.1888ZM14.7109 45.6486L15.5997 45.2114V44.0153C15.5034 43.9262 15.4106 43.8335 15.3215 43.7371H14.9891C14.9 43.8335 14.8072 43.9262 14.7109 44.0153V45.6486Z" fill="white" fill-opacity="0.8"/>
<path d="M11 48.1888L11.0072 43H12.8464L13.5293 43.6865L13.5257 46.6206L13.5185 47.4986L12.8392 48.1815L11 48.1888ZM12.4309 47.448L12.7019 47.1734C12.7067 46.8048 12.7091 46.4363 12.7091 46.0677V44.0153L12.4381 43.7371L11.8238 43.7443L11.8166 47.448H12.4309Z" fill="white" fill-opacity="0.8"/>
<g filter="url(#filter1_d_2004_174)">
<rect x="82" y="50" width="1166" height="40" fill="url(#paint2_linear_2004_174)"/>
</g>
<path d="M95.474 65.186V66.026H92.184V69.708H94.662V70.534H92.184V75H90.7V65.186H95.474ZM97.7488 65.186V75H96.2788V65.186H97.7488ZM103.531 74.16V75H99.1766V65.186H100.647V74.16H103.531ZM108.466 65.186V66.026H106.45V75H104.98V66.026H102.964V65.186H108.466ZM115.174 67.818C115.174 69.694 114.558 70.128 113.914 70.31C114.558 70.534 115.188 71.01 115.188 72.746V75H113.718V72.746C113.718 71.192 113.34 70.73 112.57 70.73H111.352V69.904H112.598C113.312 69.904 113.69 69.442 113.69 67.958C113.69 66.474 113.312 66.026 112.598 66.026H110.75V75H109.28V65.186H112.892C114.544 65.186 115.174 65.942 115.174 67.818ZM116.182 67.79C116.182 66.138 116.784 65.186 118.282 65.186H120.438C121.936 65.186 122.538 66.138 122.538 67.79V72.466C122.538 74.048 121.95 75 120.438 75H118.282C116.77 75 116.182 74.048 116.182 72.466V67.79ZM121.068 72.466V67.79C121.068 66.432 120.746 66.026 119.99 66.026H118.73C117.974 66.026 117.652 66.432 117.652 67.79V72.466C117.652 73.6 117.974 74.16 118.73 74.16H119.99C120.746 74.16 121.068 73.6 121.068 72.466ZM129.119 72.046C129.119 74.062 128.489 75 126.837 75H123.701V74.16H126.557C127.355 74.16 127.761 73.852 127.761 72.256C127.761 70.856 127.537 70.604 126.417 70.604H125.353C123.939 70.604 123.449 69.918 123.449 67.916C123.449 66.194 124.023 65.186 125.605 65.186H128.335V66.026H125.955C125.185 66.026 124.807 66.376 124.807 67.72C124.807 69.022 124.961 69.33 125.955 69.33H126.949C128.461 69.33 129.119 69.806 129.119 72.046Z" fill="#103778"/>
<path d="M167.76 68.85V72.19C167.76 73.32 167.34 74 166.26 74H163.5V66.99H166.26C167.33 66.99 167.76 67.67 167.76 68.85ZM166.71 72.19V68.85C166.71 67.88 166.48 67.59 165.94 67.59H164.55V73.4H165.94C166.48 73.4 166.71 73 166.71 72.19ZM171.638 74L171.358 72.47H169.488L169.198 74H168.158L169.608 66.99H171.338L172.728 74H171.638ZM170.418 67.59L169.598 71.88H171.258L170.518 67.59H170.418ZM176.317 66.99V67.59H174.877V74H173.827V67.59H172.387V66.99H176.317ZM179.46 74L179.18 72.47H177.31L177.02 74H175.98L177.43 66.99H179.16L180.55 74H179.46ZM178.24 67.59L177.42 71.88H179.08L178.34 67.59H178.24Z" fill="#ADADAD"/>
<path d="M420.47 68.85V72.19C420.47 73 420.7 73.4 421.24 73.4H422.98V74H420.92C419.84 74 419.42 73.32 419.42 72.19V68.85C419.42 67.67 419.85 66.99 420.92 66.99H422.96V67.59H421.24C420.7 67.59 420.47 67.88 420.47 68.85ZM423.639 68.85C423.639 67.67 424.069 66.99 425.139 66.99H426.679C427.749 66.99 428.179 67.67 428.179 68.85V72.19C428.179 73.32 427.759 74 426.679 74H425.139C424.059 74 423.639 73.32 423.639 72.19V68.85ZM427.129 72.19V68.85C427.129 67.88 426.899 67.59 426.359 67.59H425.459C424.919 67.59 424.689 67.88 424.689 68.85V72.19C424.689 73 424.919 73.4 425.459 73.4H426.359C426.899 73.4 427.129 73 427.129 72.19ZM433.37 66.99V74H432.46L429.9 68.3V74H429.08V66.99H430.38L432.54 71.98V66.99H433.37ZM437.873 66.99V67.59H436.433V74H435.383V67.59H433.943V66.99H437.873ZM441.017 74L440.737 72.47H438.867L438.577 74H437.537L438.987 66.99H440.717L442.107 74H441.017ZM439.797 67.59L438.977 71.88H440.637L439.897 67.59H439.797Z" fill="#ADADAD"/>
<rect x="82" y="111.525" width="580.714" height="295.96" rx="2" fill="url(#paint3_linear_2004_174)"/>
<rect x="1248" y="409" width="585.286" height="300" rx="2" transform="rotate(180 1248 409)" fill="url(#paint4_linear_2004_174)"/>
<rect x="84" y="111" width="1162" height="295" fill="#F8F8F8"/>
<path d="M101.42 130.74C101.42 133.42 100.54 134.04 99.62 134.3C100.54 134.62 101.44 135.3 101.44 137.78V141H99.34V137.78C99.34 135.56 98.8 134.9 97.7 134.9H95.96V133.72H97.74C98.76 133.72 99.3 133.06 99.3 130.94C99.3 128.82 98.76 128.18 97.74 128.18H95.1V141H93V126.98H98.16C100.52 126.98 101.42 128.06 101.42 130.74ZM110.413 139.8V141H103.313V126.98H110.413V128.18H105.413V133.26H108.993V134.44H105.413V139.8H110.413ZM113.827 130.7V137.38C113.827 139 114.287 139.8 115.367 139.8H118.847V141H114.727C112.567 141 111.727 139.64 111.727 137.38V130.7C111.727 128.34 112.587 126.98 114.727 126.98H118.807V128.18H115.367C114.287 128.18 113.827 128.76 113.827 130.7ZM127.424 139.8V141H120.324V126.98H127.424V128.18H122.424V133.26H126.004V134.44H122.424V139.8H127.424ZM131.038 126.98V141H128.938V126.98H131.038ZM140.098 126.98V128.18H137.218V141H135.118V128.18H132.238V126.98H140.098ZM146.386 141L145.826 137.94H142.086L141.506 141H139.426L142.326 126.98H145.786L148.566 141H146.386ZM143.946 128.18L142.306 136.76H145.626L144.146 128.18H143.946ZM157.279 136.78C157.279 139.66 156.379 141 154.019 141H149.539V139.8H153.619C154.759 139.8 155.339 139.36 155.339 137.08C155.339 135.08 155.019 134.72 153.419 134.72H151.899C149.879 134.72 149.179 133.74 149.179 130.88C149.179 128.42 149.999 126.98 152.259 126.98H156.159V128.18H152.759C151.659 128.18 151.119 128.68 151.119 130.6C151.119 132.46 151.339 132.9 152.759 132.9H154.179C156.339 132.9 157.279 133.58 157.279 136.78ZM160.53 139.04L159.69 144.16H158.43V139.04H160.53ZM175.524 130.7V137.38C175.524 139.64 174.684 141 172.524 141H167.004V126.98H172.524C174.664 126.98 175.524 128.34 175.524 130.7ZM173.424 137.38V130.7C173.424 128.76 172.964 128.18 171.884 128.18H169.104V139.8H171.884C172.964 139.8 173.424 139 173.424 137.38ZM184.455 139.8V141H177.355V126.98H184.455V128.18H179.455V133.26H183.035V134.44H179.455V139.8H184.455ZM193.49 136.78C193.49 139.66 192.59 141 190.23 141H185.75V139.8H189.83C190.97 139.8 191.55 139.36 191.55 137.08C191.55 135.08 191.23 134.72 189.63 134.72H188.11C186.09 134.72 185.39 133.74 185.39 130.88C185.39 128.42 186.21 126.98 188.47 126.98H192.37V128.18H188.97C187.87 128.18 187.33 128.68 187.33 130.6C187.33 132.46 187.55 132.9 188.97 132.9H190.39C192.55 132.9 193.49 133.58 193.49 136.78ZM203.471 131.26C203.471 134.8 202.811 135.4 200.131 135.4H197.951V134.22H199.891C201.091 134.22 201.411 133.74 201.411 131.22C201.411 128.7 201.091 128.18 199.891 128.18H197.131V141H195.031V126.98H200.131C202.811 126.98 203.471 127.72 203.471 131.26ZM211.858 139.8V141H204.758V126.98H211.858V128.18H206.858V133.26H210.438V134.44H206.858V139.8H211.858ZM220.892 136.78C220.892 139.66 219.992 141 217.632 141H213.152V139.8H217.232C218.372 139.8 218.952 139.36 218.952 137.08C218.952 135.08 218.632 134.72 217.032 134.72H215.512C213.492 134.72 212.792 133.74 212.792 130.88C212.792 128.42 213.612 126.98 215.872 126.98H219.772V128.18H216.372C215.272 128.18 214.732 128.68 214.732 130.6C214.732 132.46 214.952 132.9 216.372 132.9H217.792C219.952 132.9 220.892 133.58 220.892 136.78ZM228.358 141L227.798 137.94H224.058L223.478 141H221.398L224.298 126.98H227.758L230.538 141H228.358ZM225.918 128.18L224.278 136.76H227.598L226.118 128.18H225.918ZM239.251 136.78C239.251 139.66 238.351 141 235.991 141H231.511V139.8H235.591C236.731 139.8 237.311 139.36 237.311 137.08C237.311 135.08 236.991 134.72 235.391 134.72H233.871C231.851 134.72 231.151 133.74 231.151 130.88C231.151 128.42 231.971 126.98 234.231 126.98H238.131V128.18H234.731C233.631 128.18 233.091 128.68 233.091 130.6C233.091 132.46 233.311 132.9 234.731 132.9H236.151C238.311 132.9 239.251 133.58 239.251 136.78ZM252.62 139.8V141H245.52V126.98H252.62V128.18H247.62V133.26H251.2V134.44H247.62V139.8H252.62ZM265.64 126.98V128.18H260.94V133.44H264.48V134.62H260.94V141H258.82V126.98H265.64ZM266.65 137.38V126.98H268.81V137.38C268.81 139.24 269.27 139.8 270.35 139.8H272.07C273.17 139.8 273.61 139.24 273.61 137.38V126.98H275.69V137.38C275.69 139.64 274.81 141 272.65 141H269.69C267.41 141 266.65 139.64 266.65 137.38ZM284.61 126.98V128.18H281.73V141H279.63V128.18H276.75V126.98H284.61ZM285.673 137.38V126.98H287.833V137.38C287.833 139.24 288.293 139.8 289.373 139.8H291.093C292.193 139.8 292.633 139.24 292.633 137.38V126.98H294.713V137.38C294.713 139.64 293.833 141 291.673 141H288.713C286.433 141 285.673 139.64 285.673 137.38ZM305.033 130.74C305.033 133.42 304.153 134.04 303.233 134.3C304.153 134.62 305.053 135.3 305.053 137.78V141H302.953V137.78C302.953 135.56 302.413 134.9 301.313 134.9H299.573V133.72H301.353C302.373 133.72 302.913 133.06 302.913 130.94C302.913 128.82 302.373 128.18 301.353 128.18H298.713V141H296.613V126.98H301.773C304.133 126.98 305.033 128.06 305.033 130.74ZM306.473 130.7C306.473 128.34 307.333 126.98 309.473 126.98H312.553C314.693 126.98 315.553 128.34 315.553 130.7V137.38C315.553 139.64 314.713 141 312.553 141H309.473C307.313 141 306.473 139.64 306.473 137.38V130.7ZM313.453 137.38V130.7C313.453 128.76 312.993 128.18 311.913 128.18H310.113C309.033 128.18 308.573 128.76 308.573 130.7V137.38C308.573 139 309.033 139.8 310.113 139.8H311.913C312.993 139.8 313.453 139 313.453 137.38Z" fill="#103778"/>
<rect x="82" y="427.348" width="580.714" height="275.242" rx="2" fill="url(#paint5_linear_2004_174)"/>
<rect x="1248" y="704" width="585.286" height="279" rx="2" transform="rotate(180 1248 704)" fill="url(#paint6_linear_2004_174)"/>
<rect x="84" y="426.86" width="1162" height="274.35" fill="#F8F8F8"/>
<path d="M101.52 446.7V453.38C101.52 455.64 100.68 457 98.52 457H93V442.98H98.52C100.66 442.98 101.52 444.34 101.52 446.7ZM99.42 453.38V446.7C99.42 444.76 98.96 444.18 97.88 444.18H95.1V455.8H97.88C98.96 455.8 99.42 455 99.42 453.38ZM105.492 442.98V457H103.392V442.98H105.492ZM116.071 442.98V457H114.251L109.131 445.6V457H107.491V442.98H110.091L114.411 452.96V442.98H116.071ZM126.659 442.98V457H124.559V450.46H120.159V457H118.059V442.98H120.159V449.26H124.559V442.98H126.659ZM135.764 455.8V457H128.664V442.98H135.764V444.18H130.764V449.26H134.344V450.44H130.764V455.8H135.764ZM139.378 442.98V457H137.278V442.98H139.378ZM149.838 446.74C149.838 449.42 148.958 450.04 148.038 450.3C148.958 450.62 149.858 451.3 149.858 453.78V457H147.758V453.78C147.758 451.56 147.218 450.9 146.118 450.9H144.378V449.72H146.158C147.178 449.72 147.718 449.06 147.718 446.94C147.718 444.82 147.178 444.18 146.158 444.18H143.518V457H141.418V442.98H146.578C148.938 442.98 149.838 444.06 149.838 446.74ZM151.278 446.7C151.278 444.34 152.138 442.98 154.278 442.98H157.358C159.498 442.98 160.358 444.34 160.358 446.7V453.38C160.358 455.64 159.518 457 157.358 457H154.278C152.118 457 151.278 455.64 151.278 453.38V446.7ZM158.258 453.38V446.7C158.258 444.76 157.798 444.18 156.718 444.18H154.918C153.838 444.18 153.377 444.76 153.377 446.7V453.38C153.377 455 153.838 455.8 154.918 455.8H156.718C157.798 455.8 158.258 455 158.258 453.38ZM174.026 455.8V457H166.926V442.98H174.026V444.18H169.026V449.26H172.606V450.44H169.026V455.8H174.026ZM186.64 442.98V457H184.62V445.08L182.1 457H180.04L177.4 445.08V457H175.48V442.98H178.66L181.18 454.78L183.64 442.98H186.64ZM197.065 447.26C197.065 450.8 196.405 451.4 193.725 451.4H191.545V450.22H193.485C194.685 450.22 195.005 449.74 195.005 447.22C195.005 444.7 194.685 444.18 193.485 444.18H190.725V457H188.625V442.98H193.725C196.405 442.98 197.065 443.72 197.065 447.26ZM206.772 446.74C206.772 449.42 205.892 450.04 204.972 450.3C205.892 450.62 206.792 451.3 206.792 453.78V457H204.692V453.78C204.692 451.56 204.152 450.9 203.052 450.9H201.312V449.72H203.092C204.112 449.72 204.652 449.06 204.652 446.94C204.652 444.82 204.112 444.18 203.092 444.18H200.452V457H198.352V442.98H203.512C205.872 442.98 206.772 444.06 206.772 446.74ZM215.764 455.8V457H208.664V442.98H215.764V444.18H210.764V449.26H214.344V450.44H210.764V455.8H215.764ZM224.798 452.78C224.798 455.66 223.898 457 221.538 457H217.058V455.8H221.138C222.278 455.8 222.858 455.36 222.858 453.08C222.858 451.08 222.538 450.72 220.938 450.72H219.418C217.398 450.72 216.698 449.74 216.698 446.88C216.698 444.42 217.518 442.98 219.778 442.98H223.678V444.18H220.278C219.178 444.18 218.638 444.68 218.638 446.6C218.638 448.46 218.858 448.9 220.278 448.9H221.698C223.858 448.9 224.798 449.58 224.798 452.78ZM232.813 442.98V444.18H229.933V457H227.833V444.18H224.953V442.98H232.813ZM239.1 457L238.54 453.94H234.8L234.22 457H232.14L235.04 442.98H238.5L241.28 457H239.1ZM236.66 444.18L235.02 452.76H238.34L236.86 444.18H236.66ZM250.954 446.7V453.38C250.954 455.64 250.114 457 247.954 457H242.434V442.98H247.954C250.094 442.98 250.954 444.34 250.954 446.7ZM248.854 453.38V446.7C248.854 444.76 248.394 444.18 247.314 444.18H244.534V455.8H247.314C248.394 455.8 248.854 455 248.854 453.38ZM252.625 446.7C252.625 444.34 253.485 442.98 255.625 442.98H258.705C260.845 442.98 261.705 444.34 261.705 446.7V453.38C261.705 455.64 260.865 457 258.705 457H255.625C253.465 457 252.625 455.64 252.625 453.38V446.7ZM259.605 453.38V446.7C259.605 444.76 259.145 444.18 258.065 444.18H256.265C255.185 444.18 254.725 444.76 254.725 446.7V453.38C254.725 455 255.185 455.8 256.265 455.8H258.065C259.145 455.8 259.605 455 259.605 453.38ZM270.633 444.02V457.8C270.633 459.28 271.013 460.22 272.433 460.22H274.053V461.4H272.193C270.233 461.4 268.873 460.3 268.873 457.78V444.04C268.873 441.52 270.233 440.42 272.193 440.42H274.053V441.6H272.433C271.013 441.6 270.633 442.54 270.633 444.02ZM275.361 453.38V442.98H277.521V453.38C277.521 455.24 277.981 455.8 279.061 455.8H280.781C281.881 455.8 282.321 455.24 282.321 453.38V442.98H284.401V453.38C284.401 455.64 283.521 457 281.361 457H278.401C276.121 457 275.361 455.64 275.361 453.38ZM280.601 438.84H283.461L279.321 441.86H277.501L280.601 438.84ZM292.521 455.8V457H286.301V442.98H288.401V455.8H292.521ZM299.571 442.98V444.18H296.691V457H294.591V444.18H291.711V442.98H299.571ZM302.874 442.98V457H300.774V442.98H302.874ZM316.054 442.98V457H314.034V445.08L311.514 457H309.454L306.814 445.08V457H304.894V442.98H308.074L310.594 454.78L313.054 442.98H316.054ZM317.879 446.7C317.879 444.34 318.739 442.98 320.879 442.98H323.959C326.099 442.98 326.959 444.34 326.959 446.7V453.38C326.959 455.64 326.119 457 323.959 457H320.879C318.719 457 317.879 455.64 317.879 453.38V446.7ZM324.859 453.38V446.7C324.859 444.76 324.399 444.18 323.319 444.18H321.519C320.439 444.18 319.979 444.76 319.979 446.7V453.38C319.979 455 320.439 455.8 321.519 455.8H323.319C324.399 455.8 324.859 455 324.859 453.38ZM336.361 452.78C336.361 455.66 335.461 457 333.101 457H328.621V455.8H332.701C333.841 455.8 334.421 455.36 334.421 453.08C334.421 451.08 334.101 450.72 332.501 450.72H330.981C328.961 450.72 328.261 449.74 328.261 446.88C328.261 444.42 329.081 442.98 331.341 442.98H335.241V444.18H331.841C330.741 444.18 330.201 444.68 330.201 446.6C330.201 448.46 330.421 448.9 331.841 448.9H333.261C335.421 448.9 336.361 449.58 336.361 452.78ZM349.649 442.98V444.18H346.769V457H344.669V444.18H341.789V442.98H349.649ZM359.233 446.74C359.233 449.42 358.353 450.04 357.433 450.3C358.353 450.62 359.253 451.3 359.253 453.78V457H357.153V453.78C357.153 451.56 356.613 450.9 355.513 450.9H353.773V449.72H355.553C356.573 449.72 357.113 449.06 357.113 446.94C357.113 444.82 356.573 444.18 355.553 444.18H352.913V457H350.813V442.98H355.973C358.333 442.98 359.233 444.06 359.233 446.74ZM368.225 455.8V457H361.125V442.98H368.225V444.18H363.225V449.26H366.805V450.44H363.225V455.8H368.225ZM363.905 438.84H365.345L368.425 441.86H366.905L364.625 440.12L362.345 441.86H360.825L363.905 438.84ZM377.259 452.78C377.259 455.66 376.359 457 373.999 457H369.519V455.8H373.599C374.739 455.8 375.319 455.36 375.319 453.08C375.319 451.08 374.999 450.72 373.399 450.72H371.879C369.859 450.72 369.159 449.74 369.159 446.88C369.159 444.42 369.979 442.98 372.239 442.98H376.139V444.18H372.739C371.639 444.18 371.099 444.68 371.099 446.6C371.099 448.46 371.319 448.9 372.739 448.9H374.159C376.319 448.9 377.259 449.58 377.259 452.78ZM394.667 442.98V457H392.647V445.08L390.127 457H388.067L385.427 445.08V457H383.507V442.98H386.687L389.207 454.78L391.667 442.98H394.667ZM403.752 455.8V457H396.652V442.98H403.752V444.18H398.752V449.26H402.332V450.44H398.752V455.8H403.752ZM412.787 452.78C412.787 455.66 411.887 457 409.527 457H405.047V455.8H409.127C410.267 455.8 410.847 455.36 410.847 453.08C410.847 451.08 410.527 450.72 408.927 450.72H407.407C405.387 450.72 404.687 449.74 404.687 446.88C404.687 444.42 405.507 442.98 407.767 442.98H411.667V444.18H408.267C407.167 444.18 406.627 444.68 406.627 446.6C406.627 448.46 406.847 448.9 408.267 448.9H409.687C411.847 448.9 412.787 449.58 412.787 452.78ZM421.428 455.8V457H414.328V442.98H421.428V444.18H416.428V449.26H420.008V450.44H416.428V455.8H421.428ZM430.462 452.78C430.462 455.66 429.562 457 427.202 457H422.722V455.8H426.802C427.942 455.8 428.522 455.36 428.522 453.08C428.522 451.08 428.202 450.72 426.602 450.72H425.082C423.062 450.72 422.362 449.74 422.362 446.88C422.362 444.42 423.182 442.98 425.442 442.98H429.342V444.18H425.942C424.842 444.18 424.302 444.68 424.302 446.6C424.302 448.46 424.522 448.9 425.942 448.9H427.362C429.522 448.9 430.462 449.58 430.462 452.78ZM434.824 457.8V444.02C434.824 442.54 434.444 441.6 433.024 441.6H431.404V440.42H433.264C435.224 440.42 436.584 441.52 436.584 444.04V457.78C436.584 460.3 435.224 461.4 433.264 461.4H431.404V460.22H433.024C434.444 460.22 434.824 459.28 434.824 457.8Z" fill="#103778"/>
<circle cx="1209" cy="70" r="26" fill="url(#paint7_linear_2004_174)"/>
<path d="M1219.73 59.3763C1219.65 59.2073 1219.51 59.0655 1219.35 58.9661C1219.19 58.8668 1219 58.8137 1218.81 58.8125H1209.19C1208.91 58.8125 1208.65 58.9212 1208.46 59.1145C1208.26 59.3079 1208.16 59.5702 1208.16 59.8438C1208.16 60.1173 1208.26 60.3796 1208.46 60.573C1208.65 60.7663 1208.91 60.875 1209.19 60.875H1216.75L1214.21 64.395C1214.05 64.6138 1213.98 64.8874 1214.02 65.1556C1214.06 65.4237 1214.21 65.6645 1214.43 65.825C1214.65 65.9855 1214.92 66.0524 1215.19 66.0112C1215.46 65.9699 1215.7 65.8238 1215.86 65.605L1219.64 60.4488C1219.75 60.2976 1219.82 60.1164 1219.84 59.9265C1219.86 59.7366 1219.82 59.5457 1219.73 59.3763Z" fill="white" stroke="white" stroke-width="0.00064"/>
<path d="M1203.89 59.1151C1203.89 59.1151 1203.89 59.1151 1203.82 59.1151C1203.75 59.0474 1203.66 58.9918 1203.56 58.9501C1203.47 58.9128 1203.36 58.8896 1203.26 58.8813H1198.19C1198 58.8825 1197.81 58.9356 1197.65 59.0349C1197.49 59.1343 1197.35 59.2761 1197.27 59.4451C1197.18 59.6145 1197.14 59.8054 1197.16 59.9953C1197.18 60.1853 1197.25 60.3664 1197.36 60.5176L1204.72 70.5V81.1562C1204.72 81.4288 1204.83 81.6889 1205.02 81.8816C1205.22 82.0742 1205.48 82.1841 1205.75 82.1875H1211.25C1211.52 82.1841 1211.78 82.0742 1211.98 81.8816C1212.17 81.6889 1212.28 81.4288 1212.28 81.1562V70.5L1212.36 70.3762L1217.4 75.3537C1217.49 75.4503 1217.6 75.5266 1217.73 75.5786C1217.86 75.6305 1217.99 75.6569 1218.12 75.6562C1218.26 75.6578 1218.39 75.6316 1218.52 75.5797C1218.65 75.5277 1218.76 75.4508 1218.85 75.3537C1219.05 75.1604 1219.16 74.8983 1219.16 74.625C1219.16 74.3518 1219.05 74.0897 1218.85 73.8962L1203.89 59.1151ZM1210.42 69.5512C1210.29 69.7241 1210.22 69.9372 1210.22 70.1562V80.125H1206.78V70.1562C1206.78 69.9372 1206.71 69.7241 1206.57 69.5512L1200.25 60.8751H1202.75L1210.88 68.9187L1210.42 69.5512Z" fill="white" stroke="white" stroke-width="0.00064"/>
<g clip-path="url(#clip1_2004_174)">
<path d="M16.9913 112.254C16.9913 112.254 16.9718 112.746 17.4522 112.746C18.0498 112.746 22.9978 112.74 22.9978 112.74L23.0059 108.195C23.0059 108.195 22.9277 107.446 23.6548 107.446H25.9558C26.8156 107.446 26.7627 108.195 26.7627 108.195L26.7529 112.725C26.7529 112.725 31.4444 112.725 32.1813 112.725C32.7911 112.725 32.7634 112.113 32.7634 112.113V103.735L25.1131 96.9301L16.9913 103.735V112.254Z" fill="white"/>
<path d="M14 103.102C14 103.102 14.6896 104.373 16.1935 103.102L25.1808 95.4987L33.607 103.055C35.3478 104.31 36 103.055 36 103.055L25.1808 93.2539L14 103.102Z" fill="white"/>
<path d="M33.4028 95.4807H31.2354L31.2443 98.109L33.4028 99.9402V95.4807Z" fill="white"/>
</g>
<path d="M25.5 149.417L21.6667 149.417M34.125 147.5V146.733C34.125 145.66 34.125 145.123 33.9161 144.713C33.7324 144.353 33.4391 144.059 33.0785 143.876C32.6685 143.667 32.1318 143.667 31.0583 143.667H16.875M34.125 147.5V151.333M34.125 147.5H32.2083C31.1498 147.5 30.2917 148.358 30.2917 149.417C30.2917 150.475 31.1498 151.333 32.2083 151.333H34.125M16.875 143.667V152.1C16.875 153.173 16.875 153.71 17.0839 154.12C17.2677 154.481 17.5609 154.774 17.9215 154.958C18.3315 155.167 18.8682 155.167 19.9417 155.167H31.0583C32.1318 155.167 32.6685 155.167 33.0785 154.958C33.4391 154.774 33.7324 154.481 33.9161 154.12C34.125 153.71 34.125 153.173 34.125 152.1V151.333M16.875 143.667V142.9C16.875 141.827 16.875 141.29 17.0839 140.88C17.2677 140.519 17.5609 140.226 17.9215 140.042C18.3315 139.833 18.8682 139.833 19.9417 139.833H28.1833C29.2568 139.833 29.7935 139.833 30.2035 140.042C30.5641 140.226 30.8574 140.519 31.0411 140.88C31.25 141.29 31.25 141.827 31.25 142.9V143.667" stroke="white" stroke-opacity="0.3" stroke-width="1.6" stroke-linecap="round" stroke-linejoin="round"/>
<path d="M22 237H21V235.23C21.2356 235.018 21.4332 234.771 21.5901 234.5H22C22.8271 234.5 23.5 233.827 23.5 233C23.5 232.344 23.0899 231.801 22.5 231.591V230C22.5 228.343 21.1569 227 19.5 227H18.5C16.8431 227 15.5 228.343 15.5 230V231.592C14.9193 231.799 14.5 232.349 14.5 233C14.5 233.844 15.1873 234.5 16 234.5H16.4098C16.5667 234.771 16.7644 235.018 17 235.23V237H16C14.895 237 14 237.895 14 239V243C14 243.55 14.45 244 15 244H16V242C16 241.725 16.225 241.5 16.5 241.5C16.775 241.5 17 241.725 17 242V244H21V242C21 241.725 21.225 241.5 21.5 241.5C21.775 241.5 22 241.725 22 242V244H23C23.55 244 24 243.55 24 243V239C24 237.895 23.105 237 22 237ZM17 233V232C17 230.985 17.7593 230.145 18.7466 230.016C18.9561 230.477 19.2929 230.876 19.7202 231.164C20.0933 231.416 20.5171 231.569 20.9624 231.613C20.9878 231.739 21 231.867 21 232V233C21 233.625 20.7007 234.223 20.1978 234.602C18.9405 235.556 17 234.691 17 233ZM19.9782 235.837C19.9853 235.834 19.9929 235.833 20 235.831V236.891C19.5853 237.703 18.4141 237.701 18 236.891V235.831C18.0073 235.834 18.0152 235.834 18.0225 235.837C18.6866 236.065 19.403 236.034 19.9782 235.837ZM22 233.5H21.9523C22.0145 233.138 22 232.904 22 232.5C22.6579 232.5 22.6607 233.5 22 233.5ZM16 233.5C15.3421 233.5 15.3393 232.5 16 232.5C16 232.905 15.9854 233.137 16.0477 233.5H16ZM35 237H34V235.23C34.0808 235.158 34.1568 235.081 34.2288 235H35.5C36.0523 235 36.5 234.552 36.5 234V231.5C36.5 229.015 34.4853 227 32 227C29.5147 227 27.5 229.015 27.5 231.5V234C27.5 234.552 27.9478 235 28.5 235H29.7711C29.8431 235.081 29.9191 235.157 30 235.23V237H29C27.895 237 27 237.895 27 239V243C27 243.55 27.45 244 28 244H29V242C29 241.725 29.225 241.5 29.5 241.5C29.775 241.5 30 241.725 30 242V244H34V242C34 241.725 34.225 241.5 34.5 241.5C34.775 241.5 35 241.725 35 242V244H36C36.55 244 37 243.55 37 243V239C37 237.895 36.105 237 35 237ZM31.3696 234.895C30.5457 234.63 30 233.844 30 233V232C30 230.985 30.7593 230.145 31.7466 230.016C31.9561 230.477 32.293 230.876 32.7202 231.164C33.0933 231.416 33.5171 231.569 33.9624 231.613C33.9878 231.739 34 231.867 34 232V233C34 233.625 33.7007 234.223 33.1978 234.602C32.6829 234.993 31.979 235.09 31.3696 234.895ZM31 235.831C31.0073 235.834 31.0152 235.834 31.0225 235.837C31.5952 236.033 32.3181 236.063 32.9783 235.837C32.9853 235.834 32.993 235.833 33.0001 235.831V236.854C32.8214 237.142 32.3921 237.877 32.0001 238.874C31.608 237.877 31.1788 237.142 31.0001 236.854V235.831H31ZM28.3801 224.6L26.3488 226.653C25.8914 227.116 25.1486 227.116 24.6912 226.653L22.6599 224.6C21.9193 223.851 21.7919 222.648 22.4341 221.812C23.21 220.802 24.6546 220.734 25.52 221.609C26.3854 220.734 27.8301 220.802 28.606 221.812C29.2481 222.648 29.1206 223.851 28.3801 224.6Z" fill="white" fill-opacity="0.3" stroke="black" stroke-width="0.00064"/>
<path d="M23.5833 192.333V190.417M23.5833 190.417V188.5M23.5833 190.417L25.5 190.417M23.5833 190.417L21.6667 190.417M34.125 188.5V187.733C34.125 186.66 34.125 186.123 33.9161 185.713C33.7324 185.353 33.4391 185.059 33.0785 184.876C32.6685 184.667 32.1318 184.667 31.0583 184.667H16.875M34.125 188.5V192.333M34.125 188.5H32.2083C31.1498 188.5 30.2917 189.358 30.2917 190.417C30.2917 191.475 31.1498 192.333 32.2083 192.333H34.125M16.875 184.667V193.1C16.875 194.173 16.875 194.71 17.0839 195.12C17.2677 195.481 17.5609 195.774 17.9215 195.958C18.3315 196.167 18.8682 196.167 19.9417 196.167H31.0583C32.1318 196.167 32.6685 196.167 33.0785 195.958C33.4391 195.774 33.7324 195.481 33.9161 195.12C34.125 194.71 34.125 194.173 34.125 193.1V192.333M16.875 184.667V183.9C16.875 182.827 16.875 182.29 17.0839 181.88C17.2677 181.519 17.5609 181.226 17.9215 181.042C18.3315 180.833 18.8682 180.833 19.9417 180.833H28.1833C29.2568 180.833 29.7935 180.833 30.2035 181.042C30.5641 181.226 30.8574 181.519 31.0411 181.88C31.25 182.29 31.25 182.827 31.25 183.9V184.667" stroke="white" stroke-opacity="0.3" stroke-width="1.6" stroke-linecap="round" stroke-linejoin="round"/>
</g>
<defs>
<filter id="filter0_d_2004_174" x="-2" y="77" width="62" height="56" filterUnits="userSpaceOnUse" color-interpolation-filters="sRGB">
<feFlood flood-opacity="0" result="BackgroundImageFix"/>
<feColorMatrix in="SourceAlpha" type="matrix" values="0 0 0 0 0 0 0 0 0 0 0 0 0 0 0 0 0 0 127 0" result="hardAlpha"/>
<feOffset dx="2" dy="2"/>
<feGaussianBlur stdDeviation="2"/>
<feComposite in2="hardAlpha" operator="out"/>
<feColorMatrix type="matrix" values="0 0 0 0 0 0 0 0 0 0 0 0 0 0 0 0 0 0 0.25 0"/>
<feBlend mode="normal" in2="BackgroundImageFix" result="effect1_dropShadow_2004_174"/>
<feBlend mode="normal" in="SourceGraphic" in2="effect1_dropShadow_2004_174" result="shape"/>
</filter>
<filter id="filter1_d_2004_174" x="78" y="48" width="1174" height="48" filterUnits="userSpaceOnUse" color-interpolation-filters="sRGB">
<feFlood flood-opacity="0" result="BackgroundImageFix"/>
<feColorMatrix in="SourceAlpha" type="matrix" values="0 0 0 0 0 0 0 0 0 0 0 0 0 0 0 0 0 0 127 0" result="hardAlpha"/>
<feOffset dy="2"/>
<feGaussianBlur stdDeviation="2"/>
<feComposite in2="hardAlpha" operator="out"/>
<feColorMatrix type="matrix" values="0 0 0 0 0 0 0 0 0 0 0 0 0 0 0 0 0 0 0.1 0"/>
<feBlend mode="normal" in2="BackgroundImageFix" result="effect1_dropShadow_2004_174"/>
<feBlend mode="normal" in="SourceGraphic" in2="effect1_dropShadow_2004_174" result="shape"/>
</filter>
<linearGradient id="paint0_linear_2004_174" x1="25" y1="0" x2="25" y2="720" gradientUnits="userSpaceOnUse">
<stop stop-color="#103778"/>
<stop offset="1" stop-color="#1549A0"/>
</linearGradient>
<linearGradient id="paint1_linear_2004_174" x1="5.4" y1="105.5" x2="53.9768" y2="104.439" gradientUnits="userSpaceOnUse">
<stop stop-color="#103778" stop-opacity="0"/>
<stop offset="0.59" stop-color="#7D1E11"/>
<stop offset="1" stop-color="#E3371E"/>
</linearGradient>
<linearGradient id="paint2_linear_2004_174" x1="666.839" y1="70" x2="669.762" y2="122.308" gradientUnits="userSpaceOnUse">
<stop stop-color="#FAFAFA"/>
<stop offset="1" stop-color="#F2F2F2"/>
</linearGradient>
<linearGradient id="paint3_linear_2004_174" x1="85.998" y1="407.485" x2="376.609" y2="-2.39785" gradientUnits="userSpaceOnUse">
<stop stop-color="#103778"/>
<stop offset="0.045" stop-color="#1758C5"/>
<stop offset="0.475" stop-color="#1758C5" stop-opacity="0"/>
</linearGradient>
<linearGradient id="paint4_linear_2004_174" x1="1252.03" y1="709" x2="1547.16" y2="295.114" gradientUnits="userSpaceOnUse">
<stop stop-color="#103778"/>
<stop offset="0.045" stop-color="#1758C5"/>
<stop offset="0.475" stop-color="#1758C5" stop-opacity="0"/>
</linearGradient>
<linearGradient id="paint5_linear_2004_174" x1="85.998" y1="702.591" x2="349.245" y2="303.357" gradientUnits="userSpaceOnUse">
<stop stop-color="#103778"/>
<stop offset="0.045" stop-color="#1758C5"/>
<stop offset="0.475" stop-color="#1758C5" stop-opacity="0"/>
</linearGradient>
<linearGradient id="paint6_linear_2004_174" x1="1252.03" y1="983" x2="1519.47" y2="579.721" gradientUnits="userSpaceOnUse">
<stop stop-color="#103778"/>
<stop offset="0.045" stop-color="#1758C5"/>
<stop offset="0.475" stop-color="#1758C5" stop-opacity="0"/>
</linearGradient>
<linearGradient id="paint7_linear_2004_174" x1="1209" y1="44" x2="1209" y2="96" gradientUnits="userSpaceOnUse">
<stop stop-color="#103778"/>
<stop offset="1" stop-color="#1549A0"/>
</linearGradient>
<clipPath id="clip0_2004_174">
<rect width="1280" height="720" fill="white"/>
</clipPath>
<clipPath id="clip1_2004_174">
<rect width="22" height="22" fill="white" transform="translate(14 92)"/>
</clipPath>
</defs>
</svg>
