<svg width="1280" height="980" viewBox="0 0 1280 980" fill="none" xmlns="http://www.w3.org/2000/svg">
<g clip-path="url(#clip0_2014_64)">
<rect width="1280" height="980" fill="white"/>
<path d="M95.188 27.636C95.188 31.388 93.956 32.256 92.668 32.62C93.956 33.068 95.216 34.02 95.216 37.492V42H92.276V37.492C92.276 34.384 91.52 33.46 89.98 33.46H87.544V31.808H90.036C91.464 31.808 92.22 30.884 92.22 27.916C92.22 24.948 91.464 24.052 90.036 24.052H86.34V42H83.4V22.372H90.624C93.928 22.372 95.188 23.884 95.188 27.636ZM107.778 40.32V42H97.8375V22.372H107.778V24.052H100.778V31.164H105.79V32.816H100.778V40.32H107.778ZM112.557 27.58V36.932C112.557 39.2 113.201 40.32 114.713 40.32H119.585V42H113.817C110.793 42 109.617 40.096 109.617 36.932V27.58C109.617 24.276 110.821 22.372 113.817 22.372H119.529V24.052H114.713C113.201 24.052 112.557 24.864 112.557 27.58ZM131.594 40.32V42H121.654V22.372H131.594V24.052H124.594V31.164H129.606V32.816H124.594V40.32H131.594ZM136.654 22.372V42H133.714V22.372H136.654ZM149.337 22.372V24.052H145.305V42H142.365V24.052H138.333V22.372H149.337ZM158.14 42L157.356 37.716H152.12L151.308 42H148.396L152.456 22.372H157.3L161.192 42H158.14ZM154.724 24.052L152.428 36.064H157.076L155.004 24.052H154.724ZM173.39 36.092C173.39 40.124 172.13 42 168.826 42H162.554V40.32H168.266C169.862 40.32 170.674 39.704 170.674 36.512C170.674 33.712 170.226 33.208 167.986 33.208H165.858C163.03 33.208 162.05 31.836 162.05 27.832C162.05 24.388 163.198 22.372 166.362 22.372H171.822V24.052H167.062C165.522 24.052 164.766 24.752 164.766 27.44C164.766 30.044 165.074 30.66 167.062 30.66H169.05C172.074 30.66 173.39 31.612 173.39 36.092Z" fill="#103778"/>
<rect x="82" y="110.071" width="580.714" height="828.687" rx="2" fill="url(#paint0_linear_2014_64)"/>
<rect x="1248" y="943" width="585.286" height="840" rx="2" transform="rotate(180 1248 943)" fill="url(#paint1_linear_2014_64)"/>
<rect x="84" y="104" width="1162" height="832" fill="#F8F8F8"/>
<path d="M101.52 124.7V131.38C101.52 133.64 100.68 135 98.52 135H93V120.98H98.52C100.66 120.98 101.52 122.34 101.52 124.7ZM99.42 131.38V124.7C99.42 122.76 98.96 122.18 97.88 122.18H95.1V133.8H97.88C98.96 133.8 99.42 133 99.42 131.38ZM110.452 133.8V135H103.352V120.98H110.452V122.18H105.452V127.26H109.032V128.44H105.452V133.8H110.452ZM118.946 120.98V122.18H116.066V135H113.966V122.18H111.086V120.98H118.946ZM125.233 135L124.673 131.94H120.933L120.353 135H118.273L121.173 120.98H124.633L127.413 135H125.233ZM122.793 122.18L121.153 130.76H124.473L122.993 122.18H122.793ZM134.786 133.8V135H128.566V120.98H130.666V133.8H134.786ZM144.608 120.98V135H142.508V128.46H138.108V135H136.008V120.98H138.108V127.26H142.508V120.98H144.608ZM153.713 133.8V135H146.613V120.98H153.713V122.18H148.713V127.26H152.293V128.44H148.713V133.8H153.713ZM162.748 130.78C162.748 133.66 161.848 135 159.488 135H155.008V133.8H159.088C160.228 133.8 160.808 133.36 160.808 131.08C160.808 129.08 160.488 128.72 158.888 128.72H157.368C155.348 128.72 154.648 127.74 154.648 124.88C154.648 122.42 155.468 120.98 157.728 120.98H161.628V122.18H158.228C157.127 122.18 156.588 122.68 156.588 124.6C156.588 126.46 156.808 126.9 158.228 126.9H159.648C161.808 126.9 162.748 127.58 162.748 130.78ZM177.536 124.7V131.38C177.536 133.64 176.696 135 174.536 135H169.016V120.98H174.536C176.676 120.98 177.536 122.34 177.536 124.7ZM175.436 131.38V124.7C175.436 122.76 174.976 122.18 173.896 122.18H171.116V133.8H173.896C174.976 133.8 175.436 133 175.436 131.38ZM185.292 135L184.732 131.94H180.992L180.412 135H178.332L181.232 120.98H184.692L187.472 135H185.292ZM182.852 122.18L181.212 130.76H184.532L183.052 122.18H182.852ZM196.185 130.78C196.185 133.66 195.285 135 192.925 135H188.445V133.8H192.525C193.665 133.8 194.245 133.36 194.245 131.08C194.245 129.08 193.925 128.72 192.325 128.72H190.805C188.785 128.72 188.085 127.74 188.085 124.88C188.085 122.42 188.905 120.98 191.165 120.98H195.065V122.18H191.665C190.565 122.18 190.025 122.68 190.025 124.6C190.025 126.46 190.245 126.9 191.665 126.9H193.085C195.245 126.9 196.185 127.58 196.185 130.78ZM210.873 124.74C210.873 127.42 209.993 128.04 209.073 128.3C209.993 128.62 210.893 129.3 210.893 131.78V135H208.793V131.78C208.793 129.56 208.253 128.9 207.153 128.9H205.413V127.72H207.193C208.213 127.72 208.753 127.06 208.753 124.94C208.753 122.82 208.213 122.18 207.193 122.18H204.553V135H202.453V120.98H207.613C209.973 120.98 210.873 122.06 210.873 124.74ZM219.866 133.8V135H212.766V120.98H219.866V122.18H214.866V127.26H218.446V128.44H214.866V133.8H219.866ZM223.28 124.7V131.38C223.28 133 223.74 133.8 224.82 133.8H228.3V135H224.18C222.02 135 221.18 133.64 221.18 131.38V124.7C221.18 122.34 222.04 120.98 224.18 120.98H228.26V122.18H224.82C223.74 122.18 223.28 122.76 223.28 124.7ZM236.877 133.8V135H229.777V120.98H236.877V122.18H231.877V127.26H235.457V128.44H231.877V133.8H236.877ZM240.492 120.98V135H238.392V120.98H240.492ZM249.551 120.98V122.18H246.671V135H244.571V122.18H241.691V120.98H249.551ZM255.839 135L255.279 131.94H251.539L250.959 135H248.879L251.779 120.98H255.239L258.019 135H255.839ZM253.399 122.18L251.759 130.76H255.079L253.599 122.18H253.399ZM266.732 130.78C266.732 133.66 265.832 135 263.472 135H258.992V133.8H263.072C264.212 133.8 264.792 133.36 264.792 131.08C264.792 129.08 264.472 128.72 262.872 128.72H261.352C259.332 128.72 258.632 127.74 258.632 124.88C258.632 122.42 259.452 120.98 261.712 120.98H265.612V122.18H262.212C261.112 122.18 260.572 122.68 260.572 124.6C260.572 126.46 260.792 126.9 262.212 126.9H263.632C265.792 126.9 266.732 127.58 266.732 130.78Z" fill="#103778"/>
<g filter="url(#filter0_d_2014_64)">
<rect x="82" y="50" width="1166" height="40" fill="url(#paint2_linear_2014_64)"/>
</g>
<path d="M95.474 65.186V66.026H92.184V69.708H94.662V70.534H92.184V75H90.7V65.186H95.474ZM97.7488 65.186V75H96.2788V65.186H97.7488ZM103.531 74.16V75H99.1766V65.186H100.647V74.16H103.531ZM108.466 65.186V66.026H106.45V75H104.98V66.026H102.964V65.186H108.466ZM115.174 67.818C115.174 69.694 114.558 70.128 113.914 70.31C114.558 70.534 115.188 71.01 115.188 72.746V75H113.718V72.746C113.718 71.192 113.34 70.73 112.57 70.73H111.352V69.904H112.598C113.312 69.904 113.69 69.442 113.69 67.958C113.69 66.474 113.312 66.026 112.598 66.026H110.75V75H109.28V65.186H112.892C114.544 65.186 115.174 65.942 115.174 67.818ZM116.182 67.79C116.182 66.138 116.784 65.186 118.282 65.186H120.438C121.936 65.186 122.538 66.138 122.538 67.79V72.466C122.538 74.048 121.95 75 120.438 75H118.282C116.77 75 116.182 74.048 116.182 72.466V67.79ZM121.068 72.466V67.79C121.068 66.432 120.746 66.026 119.99 66.026H118.73C117.974 66.026 117.652 66.432 117.652 67.79V72.466C117.652 73.6 117.974 74.16 118.73 74.16H119.99C120.746 74.16 121.068 73.6 121.068 72.466ZM129.119 72.046C129.119 74.062 128.489 75 126.837 75H123.701V74.16H126.557C127.355 74.16 127.761 73.852 127.761 72.256C127.761 70.856 127.537 70.604 126.417 70.604H125.353C123.939 70.604 123.449 69.918 123.449 67.916C123.449 66.194 124.023 65.186 125.605 65.186H128.335V66.026H125.955C125.185 66.026 124.807 66.376 124.807 67.72C124.807 69.022 124.961 69.33 125.955 69.33H126.949C128.461 69.33 129.119 69.806 129.119 72.046Z" fill="#103778"/>
<path d="M164.47 68.85V72.19C164.47 73 164.7 73.4 165.24 73.4H166.98V74H164.92C163.84 74 163.42 73.32 163.42 72.19V68.85C163.42 67.67 163.85 66.99 164.92 66.99H166.96V67.59H165.24C164.7 67.59 164.47 67.88 164.47 68.85ZM167.639 68.85C167.639 67.67 168.069 66.99 169.139 66.99H170.679C171.749 66.99 172.179 67.67 172.179 68.85V72.19C172.179 73.32 171.759 74 170.679 74H169.139C168.059 74 167.639 73.32 167.639 72.19V68.85ZM171.129 72.19V68.85C171.129 67.88 170.899 67.59 170.359 67.59H169.459C168.919 67.59 168.689 67.88 168.689 68.85V72.19C168.689 73 168.919 73.4 169.459 73.4H170.359C170.899 73.4 171.129 73 171.129 72.19ZM177.37 66.99V74H176.46L173.9 68.3V74H173.08V66.99H174.38L176.54 71.98V66.99H177.37ZM181.873 66.99V67.59H180.433V74H179.383V67.59H177.943V66.99H181.873ZM185.017 74L184.737 72.47H182.867L182.577 74H181.537L182.987 66.99H184.717L186.107 74H185.017ZM183.797 67.59L182.977 71.88H184.637L183.897 67.59H183.797Z" fill="#ADADAD"/>
<circle cx="1209" cy="70" r="26" fill="url(#paint3_linear_2014_64)"/>
<path d="M1219.73 59.3763C1219.65 59.2073 1219.51 59.0655 1219.35 58.9661C1219.19 58.8668 1219 58.8137 1218.81 58.8125H1209.19C1208.91 58.8125 1208.65 58.9212 1208.46 59.1145C1208.26 59.3079 1208.16 59.5702 1208.16 59.8438C1208.16 60.1173 1208.26 60.3796 1208.46 60.573C1208.65 60.7663 1208.91 60.875 1209.19 60.875H1216.75L1214.21 64.395C1214.05 64.6138 1213.98 64.8874 1214.02 65.1556C1214.06 65.4237 1214.21 65.6645 1214.43 65.825C1214.65 65.9855 1214.92 66.0524 1215.19 66.0112C1215.46 65.9699 1215.7 65.8238 1215.86 65.605L1219.64 60.4488C1219.75 60.2976 1219.82 60.1164 1219.84 59.9265C1219.86 59.7366 1219.82 59.5457 1219.73 59.3763Z" fill="white" stroke="white" stroke-width="0.00064"/>
<path d="M1203.89 59.1151C1203.89 59.1151 1203.89 59.1151 1203.82 59.1151C1203.75 59.0474 1203.66 58.9918 1203.56 58.9501C1203.47 58.9128 1203.36 58.8896 1203.26 58.8813H1198.19C1198 58.8825 1197.81 58.9356 1197.65 59.0349C1197.49 59.1343 1197.35 59.2761 1197.27 59.4451C1197.18 59.6145 1197.14 59.8054 1197.16 59.9953C1197.18 60.1853 1197.25 60.3664 1197.36 60.5176L1204.72 70.5V81.1562C1204.72 81.4288 1204.83 81.6889 1205.02 81.8816C1205.22 82.0742 1205.48 82.1841 1205.75 82.1875H1211.25C1211.52 82.1841 1211.78 82.0742 1211.98 81.8816C1212.17 81.6889 1212.28 81.4288 1212.28 81.1562V70.5L1212.36 70.3762L1217.4 75.3537C1217.49 75.4503 1217.6 75.5266 1217.73 75.5786C1217.86 75.6305 1217.99 75.6569 1218.12 75.6562C1218.26 75.6578 1218.39 75.6316 1218.52 75.5797C1218.65 75.5277 1218.76 75.4508 1218.85 75.3537C1219.05 75.1604 1219.16 74.8983 1219.16 74.625C1219.16 74.3518 1219.05 74.0897 1218.85 73.8962L1203.89 59.1151ZM1210.42 69.5512C1210.29 69.7241 1210.22 69.9372 1210.22 70.1562V80.125H1206.78V70.1562C1206.78 69.9372 1206.71 69.7241 1206.57 69.5512L1200.25 60.8751H1202.75L1210.88 68.9187L1210.42 69.5512Z" fill="white" stroke="white" stroke-width="0.00064"/>
<rect width="50" height="980" fill="url(#paint4_linear_2014_64)"/>
<g filter="url(#filter1_d_2014_64)">
<rect y="165" width="54" height="48" rx="2" fill="url(#paint5_linear_2014_64)" fill-opacity="0.9" shape-rendering="crispEdges"/>
</g>
<rect y="167" width="52" height="44" fill="#103778"/>
<path d="M40.2734 28H45.415V30.0142H42.4707V32.0576H45.2686V34.0352H42.5V36.584H45.4883V38.5908H40.2734V28Z" fill="white"/>
<path d="M37.1387 34.0791V28H39.2334V38.5908H37.0361L34.8682 32.5117V38.5908H32.7881V28H34.9854L37.1387 34.0791Z" fill="white"/>
<path d="M25.4199 28H31.814V38.5908H25.4199V28ZM27.6465 36.584H29.5947V30.0142H27.6465V36.584Z" fill="white"/>
<path d="M22.3657 38.5908L21.0474 34.7603H20.4614V38.5908H18.2422V29.4941L19.8535 28H24.3872V34.731H23.186L24.5923 38.5908H22.3657ZM22.168 32.7754V30.0142H20.4614V32.7754H22.168Z" fill="white"/>
<path d="M22.3657 38.5908L21.0474 34.7603H20.4614V38.5908H18.2422V29.4941L19.8535 28H24.3872V34.731H23.186L24.5923 38.5908H22.3657ZM22.168 32.7754V30.0142H20.4614V32.7754H22.168Z" fill="white"/>
<path d="M17.2534 38.5908H10.9912V28H13.2104V36.584H15.0269V28H17.2534V38.5908Z" fill="white"/>
<path d="M7.21924 34.0352V38.5908H5V29.4648L6.46484 28H10.061V30.0142H7.21924V32.0576H9.84131V34.0352H7.21924Z" fill="white"/>
<g opacity="0.8">
<path d="M19 19.9544L21.9544 16.0907L24.6819 22L26.9548 12L28.3185 15.1819L30.3641 12.6819L31.7278 15.6363" stroke="white" stroke-width="1.472" stroke-linecap="round" stroke-linejoin="round"/>
</g>
<path d="M36.7561 48.1888H35.9395V43H36.7561V48.1888Z" fill="white" fill-opacity="0.8"/>
<path d="M33.0739 43.0072H34.895C35.1239 43.2361 35.3515 43.4649 35.578 43.6938V45.1319C35.5659 45.1439 35.4431 45.2294 35.2094 45.3884C35.4503 45.4631 35.5731 45.5016 35.578 45.504V47.4986C35.3515 47.7299 35.1239 47.9587 34.895 48.1851H33.0739C33.0715 48.1851 33.0703 48.1839 33.0703 48.1815V43.0108C33.0703 43.0084 33.0715 43.0072 33.0739 43.0072ZM33.8833 44.0226V45.4173C34.4494 45.0897 34.7433 44.9211 34.765 44.9115V44.0226C34.6397 43.8973 34.547 43.8058 34.4867 43.748H34.1615L33.8833 44.0226ZM33.8833 46.2376V47.4444H33.9773C34.0857 47.4444 34.2555 47.4444 34.4867 47.4444C34.6722 47.2613 34.765 47.1698 34.765 47.1698V45.7281H34.7614C34.176 46.0653 33.8833 46.2351 33.8833 46.2376Z" fill="white" fill-opacity="0.8"/>
<path d="M28.2717 43.0072H29.4063C29.4087 43.0096 29.5845 43.2385 29.9338 43.6938V43.9467C29.9338 44.1876 29.935 44.5321 29.9374 44.9801C29.3159 45.3511 28.9715 45.5582 28.904 45.6016C29.3545 46.2207 29.5954 46.5495 29.6267 46.588C29.6195 46.4748 29.611 46.258 29.6014 45.9376L29.605 45.934L30.4108 46.2339V46.2412V47.4986L30.8733 48.1851L30.8661 48.1888H30.0314C30.0266 48.1888 29.9808 48.1334 29.8941 48.0225C29.8483 48.0707 29.7929 48.1261 29.7279 48.1888H27.9609C27.8381 48.0707 27.6092 47.8431 27.2744 47.5058V45.6016C27.2889 45.5896 27.4129 45.5221 27.6466 45.3993C27.7189 45.3583 27.7598 45.3354 27.7694 45.3306C27.6562 45.1692 27.5948 45.0789 27.5852 45.0596V43.6938C28.038 43.2361 28.2669 43.0072 28.2717 43.0072ZM28.3982 44.0262V44.8356C28.4945 44.9801 28.5451 45.0536 28.5499 45.056C29.0197 44.7838 29.263 44.6417 29.2798 44.6296V44.0262C29.1859 43.9322 29.0931 43.8407 29.0016 43.7516H28.6764C28.4933 43.9322 28.4006 44.0238 28.3982 44.0262ZM28.0874 46.1689V47.1734L28.3656 47.448H29.3232C29.3256 47.448 29.3473 47.4263 29.3882 47.383V47.3794C28.6969 46.5049 28.3464 46.0605 28.3367 46.046C28.3319 46.046 28.2488 46.087 28.0874 46.1689Z" fill="white" fill-opacity="0.8"/>
<path d="M24.3945 48.1888H23.249L22.5625 47.5022V46.0713L23.3791 46.5555V47.1662L23.6573 47.4444H23.9898L24.2608 47.1662V46.3857L22.5625 45.28V43.6865L23.249 43H24.3908L25.0774 43.6793V44.9367L24.2608 44.4706V44.0153L23.9898 43.7371H23.6573L23.3791 44.0153V44.832L25.0774 45.8762V47.5022L24.3945 48.1888Z" fill="white" fill-opacity="0.8"/>
<path d="M20.3584 48.1888C20.132 47.9575 19.9031 47.7287 19.6719 47.5022L19.6827 43.6865C19.9092 43.4553 20.138 43.2264 20.3692 43H21.5219C21.7869 43.2626 22.0133 43.4914 22.2012 43.6865L22.1976 47.4986L21.5111 48.1815L20.3584 48.1888ZM21.1028 47.448L21.381 47.1734V46.0677L21.3882 44.0153L21.1136 43.7371H20.7703C20.6957 43.8166 20.6053 43.9094 20.4993 44.0153L20.4957 47.1734L20.7667 47.448H21.1028Z" fill="white" fill-opacity="0.8"/>
<path d="M16.7812 48.1888L16.7885 43H18.6277L19.3106 43.6865L19.307 46.6206L19.2997 47.4986L18.6204 48.1815L16.7812 48.1888ZM18.2121 47.448L18.4831 47.1734C18.4879 46.8048 18.4904 46.4363 18.4904 46.0677V44.0153L18.2194 43.7371L17.6051 43.7443L17.5979 47.448H18.2121Z" fill="white" fill-opacity="0.8"/>
<path d="M16.42 48.1888L15.5997 48.1815V46.0244L14.7109 46.4688V48.1815L13.8906 48.1888L13.8979 43.6865L14.5808 43H15.7298L16.4127 43.6865L16.42 48.1888ZM14.7109 45.6486L15.5997 45.2114V44.0153C15.5034 43.9262 15.4106 43.8335 15.3215 43.7371H14.9891C14.9 43.8335 14.8072 43.9262 14.7109 44.0153V45.6486Z" fill="white" fill-opacity="0.8"/>
<path d="M11 48.1888L11.0072 43H12.8464L13.5293 43.6865L13.5257 46.6206L13.5185 47.4986L12.8392 48.1815L11 48.1888ZM12.4309 47.448L12.7019 47.1734C12.7067 46.8048 12.7091 46.4363 12.7091 46.0677V44.0153L12.4381 43.7371L11.8238 43.7443L11.8166 47.448H12.4309Z" fill="white" fill-opacity="0.8"/>
<g clip-path="url(#clip1_2014_64)">
<path d="M16.9913 112.254C16.9913 112.254 16.9718 112.746 17.4522 112.746C18.0498 112.746 22.9978 112.74 22.9978 112.74L23.0059 108.195C23.0059 108.195 22.9277 107.446 23.6548 107.446H25.9558C26.8156 107.446 26.7627 108.195 26.7627 108.195L26.7529 112.725C26.7529 112.725 31.4444 112.725 32.1813 112.725C32.7911 112.725 32.7634 112.113 32.7634 112.113V103.735L25.1131 96.9301L16.9913 103.735V112.254Z" fill="white" fill-opacity="0.3"/>
<path d="M14 103.102C14 103.102 14.6896 104.373 16.1935 103.102L25.1808 95.4987L33.607 103.055C35.3478 104.31 36 103.055 36 103.055L25.1808 93.2539L14 103.102Z" fill="white" fill-opacity="0.3"/>
<path d="M33.4028 95.4807H31.2354L31.2443 98.109L33.4028 99.9402V95.4807Z" fill="white" fill-opacity="0.3"/>
</g>
<path d="M25.5 149.417L21.6667 149.417M34.125 147.5V146.733C34.125 145.66 34.125 145.123 33.9161 144.713C33.7324 144.353 33.4391 144.059 33.0785 143.876C32.6685 143.667 32.1318 143.667 31.0583 143.667H16.875M34.125 147.5V151.333M34.125 147.5H32.2083C31.1498 147.5 30.2917 148.358 30.2917 149.417C30.2917 150.475 31.1498 151.333 32.2083 151.333H34.125M16.875 143.667V152.1C16.875 153.173 16.875 153.71 17.0839 154.12C17.2677 154.481 17.5609 154.774 17.9215 154.958C18.3315 155.167 18.8682 155.167 19.9417 155.167H31.0583C32.1318 155.167 32.6685 155.167 33.0785 154.958C33.4391 154.774 33.7324 154.481 33.9161 154.12C34.125 153.71 34.125 153.173 34.125 152.1V151.333M16.875 143.667V142.9C16.875 141.827 16.875 141.29 17.0839 140.88C17.2677 140.519 17.5609 140.226 17.9215 140.042C18.3315 139.833 18.8682 139.833 19.9417 139.833H28.1833C29.2568 139.833 29.7935 139.833 30.2035 140.042C30.5641 140.226 30.8574 140.519 31.0411 140.88C31.25 141.29 31.25 141.827 31.25 142.9V143.667" stroke="white" stroke-opacity="0.3" stroke-width="1.6" stroke-linecap="round" stroke-linejoin="round"/>
<path d="M23.5833 192.333V190.417M23.5833 190.417V188.5M23.5833 190.417L25.5 190.417M23.5833 190.417L21.6667 190.417M34.125 188.5V187.733C34.125 186.66 34.125 186.123 33.9161 185.713C33.7324 185.353 33.4391 185.059 33.0785 184.876C32.6685 184.667 32.1318 184.667 31.0583 184.667H16.875M34.125 188.5V192.333M34.125 188.5H32.2083C31.1498 188.5 30.2917 189.358 30.2917 190.417C30.2917 191.475 31.1498 192.333 32.2083 192.333H34.125M16.875 184.667V193.1C16.875 194.173 16.875 194.71 17.0839 195.12C17.2677 195.481 17.5609 195.774 17.9215 195.958C18.3315 196.167 18.8682 196.167 19.9417 196.167H31.0583C32.1318 196.167 32.6685 196.167 33.0785 195.958C33.4391 195.774 33.7324 195.481 33.9161 195.12C34.125 194.71 34.125 194.173 34.125 193.1V192.333M16.875 184.667V183.9C16.875 182.827 16.875 182.29 17.0839 181.88C17.2677 181.519 17.5609 181.226 17.9215 181.042C18.3315 180.833 18.8682 180.833 19.9417 180.833H28.1833C29.2568 180.833 29.7935 180.833 30.2035 181.042C30.5641 181.226 30.8574 181.519 31.0411 181.88C31.25 182.29 31.25 182.827 31.25 183.9V184.667" stroke="white" stroke-width="1.6" stroke-linecap="round" stroke-linejoin="round"/>
<path d="M22 237H21V235.23C21.2356 235.018 21.4332 234.771 21.5901 234.5H22C22.8271 234.5 23.5 233.827 23.5 233C23.5 232.344 23.0899 231.801 22.5 231.591V230C22.5 228.343 21.1569 227 19.5 227H18.5C16.8431 227 15.5 228.343 15.5 230V231.592C14.9193 231.799 14.5 232.349 14.5 233C14.5 233.844 15.1873 234.5 16 234.5H16.4098C16.5667 234.771 16.7644 235.018 17 235.23V237H16C14.895 237 14 237.895 14 239V243C14 243.55 14.45 244 15 244H16V242C16 241.725 16.225 241.5 16.5 241.5C16.775 241.5 17 241.725 17 242V244H21V242C21 241.725 21.225 241.5 21.5 241.5C21.775 241.5 22 241.725 22 242V244H23C23.55 244 24 243.55 24 243V239C24 237.895 23.105 237 22 237ZM17 233V232C17 230.985 17.7593 230.145 18.7466 230.016C18.9561 230.477 19.2929 230.876 19.7202 231.164C20.0933 231.416 20.5171 231.569 20.9624 231.613C20.9878 231.739 21 231.867 21 232V233C21 233.625 20.7007 234.223 20.1978 234.602C18.9405 235.556 17 234.691 17 233ZM19.9782 235.837C19.9853 235.834 19.9929 235.833 20 235.831V236.891C19.5853 237.703 18.4141 237.701 18 236.891V235.831C18.0073 235.834 18.0152 235.834 18.0225 235.837C18.6866 236.065 19.403 236.034 19.9782 235.837ZM22 233.5H21.9523C22.0145 233.138 22 232.904 22 232.5C22.6579 232.5 22.6607 233.5 22 233.5ZM16 233.5C15.3421 233.5 15.3393 232.5 16 232.5C16 232.905 15.9854 233.137 16.0477 233.5H16ZM35 237H34V235.23C34.0808 235.158 34.1568 235.081 34.2288 235H35.5C36.0523 235 36.5 234.552 36.5 234V231.5C36.5 229.015 34.4853 227 32 227C29.5147 227 27.5 229.015 27.5 231.5V234C27.5 234.552 27.9478 235 28.5 235H29.7711C29.8431 235.081 29.9191 235.157 30 235.23V237H29C27.895 237 27 237.895 27 239V243C27 243.55 27.45 244 28 244H29V242C29 241.725 29.225 241.5 29.5 241.5C29.775 241.5 30 241.725 30 242V244H34V242C34 241.725 34.225 241.5 34.5 241.5C34.775 241.5 35 241.725 35 242V244H36C36.55 244 37 243.55 37 243V239C37 237.895 36.105 237 35 237ZM31.3696 234.895C30.5457 234.63 30 233.844 30 233V232C30 230.985 30.7593 230.145 31.7466 230.016C31.9561 230.477 32.293 230.876 32.7202 231.164C33.0933 231.416 33.5171 231.569 33.9624 231.613C33.9878 231.739 34 231.867 34 232V233C34 233.625 33.7007 234.223 33.1978 234.602C32.6829 234.993 31.979 235.09 31.3696 234.895ZM31 235.831C31.0073 235.834 31.0152 235.834 31.0225 235.837C31.5952 236.033 32.3181 236.063 32.9783 235.837C32.9853 235.834 32.993 235.833 33.0001 235.831V236.854C32.8214 237.142 32.3921 237.877 32.0001 238.874C31.608 237.877 31.1788 237.142 31.0001 236.854V235.831H31ZM28.3801 224.6L26.3488 226.653C25.8914 227.116 25.1486 227.116 24.6912 226.653L22.6599 224.6C21.9193 223.851 21.7919 222.648 22.4341 221.812C23.21 220.802 24.6546 220.734 25.52 221.609C26.3854 220.734 27.8301 220.802 28.606 221.812C29.2481 222.648 29.1206 223.851 28.3801 224.6Z" fill="white" fill-opacity="0.3" stroke="black" stroke-width="0.00064"/>
</g>
<defs>
<filter id="filter0_d_2014_64" x="78" y="48" width="1174" height="48" filterUnits="userSpaceOnUse" color-interpolation-filters="sRGB">
<feFlood flood-opacity="0" result="BackgroundImageFix"/>
<feColorMatrix in="SourceAlpha" type="matrix" values="0 0 0 0 0 0 0 0 0 0 0 0 0 0 0 0 0 0 127 0" result="hardAlpha"/>
<feOffset dy="2"/>
<feGaussianBlur stdDeviation="2"/>
<feComposite in2="hardAlpha" operator="out"/>
<feColorMatrix type="matrix" values="0 0 0 0 0 0 0 0 0 0 0 0 0 0 0 0 0 0 0.1 0"/>
<feBlend mode="normal" in2="BackgroundImageFix" result="effect1_dropShadow_2014_64"/>
<feBlend mode="normal" in="SourceGraphic" in2="effect1_dropShadow_2014_64" result="shape"/>
</filter>
<filter id="filter1_d_2014_64" x="-2" y="163" width="62" height="56" filterUnits="userSpaceOnUse" color-interpolation-filters="sRGB">
<feFlood flood-opacity="0" result="BackgroundImageFix"/>
<feColorMatrix in="SourceAlpha" type="matrix" values="0 0 0 0 0 0 0 0 0 0 0 0 0 0 0 0 0 0 127 0" result="hardAlpha"/>
<feOffset dx="2" dy="2"/>
<feGaussianBlur stdDeviation="2"/>
<feComposite in2="hardAlpha" operator="out"/>
<feColorMatrix type="matrix" values="0 0 0 0 0 0 0 0 0 0 0 0 0 0 0 0 0 0 0.25 0"/>
<feBlend mode="normal" in2="BackgroundImageFix" result="effect1_dropShadow_2014_64"/>
<feBlend mode="normal" in="SourceGraphic" in2="effect1_dropShadow_2014_64" result="shape"/>
</filter>
<linearGradient id="paint0_linear_2014_64" x1="85.998" y1="938.757" x2="778.901" y2="589.728" gradientUnits="userSpaceOnUse">
<stop stop-color="#103778"/>
<stop offset="0.045" stop-color="#1758C5"/>
<stop offset="0.475" stop-color="#1758C5" stop-opacity="0"/>
</linearGradient>
<linearGradient id="paint1_linear_2014_64" x1="1252.03" y1="1783" x2="1952" y2="1432.42" gradientUnits="userSpaceOnUse">
<stop stop-color="#103778"/>
<stop offset="0.045" stop-color="#1758C5"/>
<stop offset="0.475" stop-color="#1758C5" stop-opacity="0"/>
</linearGradient>
<linearGradient id="paint2_linear_2014_64" x1="666.839" y1="70" x2="669.762" y2="122.308" gradientUnits="userSpaceOnUse">
<stop stop-color="#FAFAFA"/>
<stop offset="1" stop-color="#F2F2F2"/>
</linearGradient>
<linearGradient id="paint3_linear_2014_64" x1="1209" y1="44" x2="1209" y2="96" gradientUnits="userSpaceOnUse">
<stop stop-color="#103778"/>
<stop offset="1" stop-color="#1549A0"/>
</linearGradient>
<linearGradient id="paint4_linear_2014_64" x1="25" y1="0" x2="25" y2="980" gradientUnits="userSpaceOnUse">
<stop stop-color="#103778"/>
<stop offset="1" stop-color="#1549A0"/>
</linearGradient>
<linearGradient id="paint5_linear_2014_64" x1="5.4" y1="191.5" x2="53.9768" y2="190.439" gradientUnits="userSpaceOnUse">
<stop stop-color="#103778" stop-opacity="0"/>
<stop offset="0.59" stop-color="#7D1E11"/>
<stop offset="1" stop-color="#E3371E"/>
</linearGradient>
<clipPath id="clip0_2014_64">
<rect width="1280" height="980" fill="white"/>
</clipPath>
<clipPath id="clip1_2014_64">
<rect width="22" height="22" fill="white" transform="translate(14 92)"/>
</clipPath>
</defs>
</svg>
